<svg version="1.1" id="Layer_1" xmlns="http://www.w3.org/2000/svg" xmlns:xlink="http://www.w3.org/1999/xlink" x="0px" y="0px"
	 width="100%" viewBox="0 0 306 264" enable-background="new 0 0 306 264" xml:space="preserve">
<path fill="#FFFDFF" opacity="1.000000" stroke="none" 
	d="
M1.000000,94.000000 
	C1.000000,62.666676 1.000000,31.833347 1.000000,1.000016 
	C102.999969,1.000011 204.999939,1.000011 306.999939,1.000005 
	C306.999939,88.999947 306.999939,176.999893 306.999969,264.999878 
	C205.000076,264.999939 103.000153,264.999939 1.000116,264.999969 
	C1.000000,208.166672 1.000000,151.333328 1.000000,94.000000 
M50.614944,141.015411 
	C50.820759,140.729324 51.026577,140.443222 51.111904,140.128494 
	C51.111904,140.128494 51.136158,140.249939 51.727070,140.146393 
	C52.189167,139.797363 52.651264,139.448349 53.012753,139.017349 
	C53.012753,139.017349 53.085384,139.124893 53.923164,139.081100 
	C60.624641,137.941376 67.305466,137.214279 74.193474,140.650375 
	C75.328392,142.235199 76.654984,143.717743 77.564888,145.422653 
	C81.408813,152.625137 85.128654,159.893829 88.937592,167.035538 
	C88.937592,167.035538 88.842232,167.093704 88.991333,167.562210 
	C88.991333,167.562210 89.320038,167.927856 89.458427,168.601776 
	C93.013359,175.388779 96.568283,182.175781 100.053940,189.679291 
	C100.141907,190.149323 100.229874,190.619354 100.073372,191.816284 
	C98.505829,198.899826 93.903374,204.010971 88.310493,208.970078 
	C87.993736,209.255722 87.676979,209.541382 87.175415,209.762070 
	C87.175415,209.762070 87.016670,209.876846 86.122940,209.853226 
	C84.296822,209.965240 82.443977,209.917252 80.649193,210.216934 
	C72.805679,211.526550 67.160042,215.711105 64.523888,223.347260 
	C61.891209,230.973404 63.499348,237.922409 69.219116,243.492325 
	C74.521271,248.655579 80.885902,250.946548 88.922310,248.207016 
	C89.639343,247.871567 90.356369,247.536118 91.739296,247.135605 
	C92.550926,246.448364 93.362556,245.761124 94.656723,244.921844 
	C94.823532,244.635117 94.990341,244.348389 95.850044,244.011749 
	C101.903908,239.579498 103.932098,233.110886 102.170807,226.458008 
	C100.337029,219.531403 101.116470,213.831024 105.315620,208.238708 
	C105.315620,208.238708 105.243080,208.340469 105.780724,208.131577 
	C105.958809,207.795700 106.136902,207.459824 106.857414,206.767395 
	C108.559685,204.789154 110.261955,202.810898 112.756088,200.910019 
	C115.108490,200.413101 117.460892,199.916183 120.608971,199.910767 
	C122.738174,199.879028 124.867386,199.847305 127.860947,200.024353 
	C133.829453,200.379349 139.797958,200.734360 146.532318,201.443832 
	C152.372223,201.673386 158.212128,201.902939 164.818863,202.385376 
	C167.543472,202.636612 170.268066,202.887848 173.618576,203.436508 
	C174.759613,203.563721 175.900650,203.690933 177.570755,204.255432 
	C179.016327,204.858261 180.461884,205.461090 182.181412,206.576843 
	C182.769577,207.064758 183.357758,207.552658 183.973541,208.028122 
	C183.973541,208.028122 183.949829,208.054825 184.116989,208.740326 
	C184.666870,209.761948 185.147797,210.828354 185.777725,211.797974 
	C190.085495,218.428604 191.755432,225.025513 187.878723,232.768173 
	C185.630951,237.257492 186.170059,242.485413 189.106827,247.553299 
	C189.361465,247.770767 189.616104,247.988251 189.844498,248.105194 
	C189.844498,248.105194 189.764999,248.172104 189.872879,248.853867 
	C192.802490,253.214462 196.519989,256.432465 202.586914,257.638062 
	C205.461136,257.456024 208.335342,257.273987 211.657532,257.163696 
	C211.657532,257.163696 212.055176,256.944550 212.641953,257.012024 
	C213.118835,256.704468 213.595718,256.396912 214.008484,256.043762 
	C214.008484,256.043762 214.074783,256.100708 214.613831,256.098267 
	C214.869003,255.871201 215.124176,255.644135 215.429535,255.429047 
	C215.429535,255.429047 215.472107,255.458206 216.146790,255.307983 
	C228.285873,246.683365 229.563446,235.216553 219.382141,224.688461 
	C219.275543,224.468781 219.130783,224.278061 218.997299,224.064835 
	C218.997299,224.064835 218.944687,224.016556 219.013489,223.448364 
	C218.695023,223.265518 218.376572,223.082672 218.013885,222.992813 
	C218.013885,222.992813 218.088760,222.922119 217.744003,222.318329 
	C213.167358,220.904678 208.590729,219.491013 203.484955,217.665390 
	C202.343262,216.071915 201.201584,214.478424 199.979645,212.194687 
	C198.680817,210.066559 197.382004,207.938431 196.066971,205.002213 
	C195.748566,201.669632 195.430161,198.337051 195.313660,194.344070 
	C196.254898,192.319489 197.196152,190.294907 198.774536,188.001450 
	C200.931503,184.704453 203.088470,181.407440 205.800720,177.790100 
	C206.232910,176.602615 206.665100,175.415115 207.753220,173.992874 
	C209.999237,170.405426 212.245255,166.817993 214.952972,162.831055 
	C215.386536,161.926270 215.820099,161.021500 216.142731,160.095413 
	C216.142731,160.095413 216.174194,160.203903 216.725830,159.826462 
	C218.065292,157.528793 219.404770,155.231125 221.187576,152.417648 
	C222.180603,150.665283 223.173615,148.912933 224.113083,147.156937 
	C224.113083,147.156937 224.153625,147.140518 224.726334,146.798615 
	C226.530930,144.221130 228.335526,141.643631 230.869003,139.101837 
	C232.251480,138.710510 233.633957,138.319168 235.935608,138.056152 
	C244.845367,137.350571 252.227722,138.732788 258.986298,146.301224 
	C267.358398,155.676498 283.220215,152.083221 288.960236,140.922379 
	C293.604645,131.891907 290.771759,120.966202 282.331085,115.355232 
	C273.979797,109.803688 262.956024,111.273926 256.343689,119.517265 
	C252.590469,124.196274 248.247269,126.061981 242.519806,125.685936 
	C239.700348,125.500816 236.864441,125.566544 233.487854,125.166710 
	C232.279221,124.793503 231.070572,124.420303 229.712112,123.350708 
	C228.503906,121.920586 227.064041,120.625381 226.136093,119.032043 
	C224.248886,115.791504 222.638092,112.389992 220.826035,108.351456 
	C218.906418,104.865417 216.986801,101.379379 215.012131,97.181923 
	C213.565170,94.429123 212.118210,91.676323 210.659210,88.504288 
	C210.523651,88.241661 210.316071,88.062424 209.975616,87.320847 
	C209.696808,87.008865 209.417999,86.696892 209.209457,86.168243 
	C209.209457,86.168243 209.037216,86.019203 209.019745,85.486137 
	C208.913651,85.343491 208.807541,85.200836 208.542145,84.410751 
	C207.016830,81.944885 205.491516,79.479012 204.071167,76.141258 
	C204.399719,73.101501 204.728271,70.061745 205.618774,66.656136 
	C208.084427,62.901012 210.550064,59.145889 213.729431,55.299862 
	C216.131882,54.759003 218.534317,54.218147 221.638641,53.794338 
	C222.085114,53.659554 222.531586,53.524773 223.499603,53.566963 
	C224.002182,53.389858 224.504761,53.212749 225.712631,53.077103 
	C226.845016,52.403088 227.977386,51.729076 229.810074,51.046539 
	C231.865311,49.329929 233.920532,47.613319 236.684189,45.839386 
	C241.421906,38.655365 242.263687,31.051006 237.367554,23.880238 
	C233.166656,17.727684 227.197403,13.835426 218.352249,14.868291 
	C216.914734,15.270066 215.477203,15.671842 213.351730,16.045624 
	C211.540771,17.288006 209.729797,18.530388 207.282776,20.057589 
	C201.618454,25.632872 200.230377,32.249271 201.868042,39.931053 
	C202.556488,43.160351 202.120850,46.629288 201.915085,50.281586 
	C201.915085,50.281586 201.884552,50.685982 201.370483,50.917141 
	C201.235229,51.256401 201.099976,51.595665 200.397629,52.289970 
	C198.685501,54.865093 196.973373,57.440216 195.062515,60.038021 
	C195.062515,60.038021 195.087128,60.236458 194.603165,60.481800 
	C194.417847,60.990982 194.232513,61.500164 193.474075,62.046280 
	C193.224808,62.318939 192.975555,62.591599 192.283127,62.943260 
	C191.989716,63.109867 191.852463,63.361610 191.239578,63.829758 
	C190.490372,64.213692 189.741150,64.597633 188.143021,64.903763 
	C184.428253,64.629143 180.713470,64.354530 176.171707,63.874374 
	C169.483841,63.589741 162.795959,63.305107 155.455597,62.895462 
	C154.637177,62.671909 153.818741,62.448357 152.205292,62.301968 
	C148.802612,62.249672 145.399918,62.197376 141.327118,61.993877 
	C140.874191,62.040615 140.421249,62.087353 139.098526,61.957607 
	C136.454346,61.840408 133.810181,61.723206 130.963165,60.930771 
	C128.407791,60.240742 125.852417,59.550716 122.883095,58.270130 
	C119.953659,54.442013 117.024231,50.613899 114.138023,45.981667 
	C112.664352,41.333286 113.734810,37.109268 115.531601,32.662167 
	C118.646622,24.952417 117.233833,17.805723 110.991409,11.340347 
	C110.694794,11.190988 110.398178,11.041628 109.879051,10.391110 
	C109.406036,10.121361 108.933029,9.851611 108.033279,9.131909 
	C107.833580,9.078188 107.633873,9.024467 107.052605,8.455538 
	C103.053032,7.696792 99.053459,6.938046 94.331947,6.101233 
	C93.883202,6.260255 93.434456,6.419277 92.307816,6.552278 
	C88.818291,9.000032 85.328773,11.447786 81.944450,13.952051 
	C81.944450,13.952051 81.886131,13.847840 81.289612,14.230562 
	C80.373566,16.161066 79.057487,18.005087 78.617851,20.038588 
	C77.389793,25.718918 76.610306,31.459257 81.980827,36.544830 
	C84.493263,40.719017 87.744797,43.842480 93.427643,44.724510 
	C95.265991,45.164242 97.104332,45.603973 99.315720,46.573925 
	C100.808739,48.108978 102.301750,49.644035 103.887650,51.754402 
	C104.210114,52.214546 104.532578,52.674686 104.888840,53.638248 
	C105.067337,53.916096 105.245834,54.193947 105.622025,55.175385 
	C108.936867,60.549824 110.185921,66.088669 106.400284,72.364059 
	C103.615364,77.576332 100.830437,82.788612 97.642311,88.426941 
	C97.376160,88.933014 97.110008,89.439087 96.387558,90.093674 
	C96.119591,90.309830 95.983788,90.590042 95.451263,91.081306 
	C95.256737,91.367371 95.062218,91.653435 94.961586,91.955040 
	C94.961586,91.955040 94.906670,91.877327 94.357033,92.190872 
	C93.907898,93.122459 93.458763,94.054054 92.620529,95.231155 
	C92.371460,95.450737 92.258476,95.726143 91.802803,96.545326 
	C90.828224,98.325577 89.853645,100.105827 88.301971,102.247925 
	C86.451714,105.459801 84.601456,108.671677 82.192894,112.228310 
	C81.382050,113.763054 80.571213,115.297798 79.883324,116.943756 
	C79.883324,116.943756 79.812065,116.794060 79.234818,117.128464 
	C77.484528,119.416107 75.734238,121.703751 73.237358,124.185532 
	C65.801598,126.859550 58.402298,126.796181 50.765900,123.395370 
	C50.180489,122.928314 49.595074,122.461258 48.869217,121.354385 
	C47.649540,120.160210 46.429863,118.966034 44.984257,117.951942 
	C44.984257,117.951942 45.215153,117.782761 44.958378,117.179886 
	C43.667782,116.410599 42.377186,115.641319 41.017033,114.975777 
	C41.017033,114.975777 41.118683,114.903206 40.660057,114.324852 
	C33.008873,111.323822 25.893421,111.746834 19.799931,117.789268 
	C19.799931,117.789268 19.689854,117.572350 19.123911,117.726967 
	C18.767183,118.155396 18.410454,118.583832 17.995808,119.005318 
	C17.995808,119.005318 18.016550,119.059837 17.449364,119.308495 
	C16.934767,120.177635 16.420170,121.046783 15.995603,121.957001 
	C15.995603,121.957001 15.899162,121.939476 15.348193,122.308830 
	C14.892501,123.535362 14.436810,124.761887 14.001743,125.996063 
	C14.001743,125.996063 13.984182,125.977966 13.498645,126.646301 
	C12.392635,132.109436 12.175428,137.439484 15.891541,142.079407 
	C15.891541,142.079407 15.773724,142.132095 15.869204,142.660690 
	C16.125473,142.894272 16.381741,143.127838 16.697060,143.134171 
	C16.697060,143.134171 16.573044,143.333542 16.709600,143.902313 
	C17.116657,144.291107 17.523714,144.679916 17.999084,145.000000 
	C17.999084,145.000000 17.929060,145.068878 18.050171,145.601974 
	C18.484844,145.914566 18.919519,146.227173 19.484419,146.590652 
	C19.484419,146.590652 19.570299,146.700989 19.924921,147.234909 
	C26.854118,152.493195 34.105061,153.622070 42.346149,148.906815 
	C42.588898,148.658951 42.831650,148.411087 43.745781,148.050842 
	C45.551773,146.076233 47.357765,144.101624 49.066124,142.071182 
	C49.066124,142.071182 49.104885,142.176758 49.607357,141.986176 
	C49.783203,141.684250 49.959049,141.382309 50.045467,141.044754 
	C50.045467,141.044754 50.081284,141.134094 50.614944,141.015411 
z"/>
<path fill="#2704D8" opacity="1.000000" stroke="none" 
	d="
M234.035965,125.518753 
	C236.864441,125.566544 239.700348,125.500816 242.519806,125.685936 
	C248.247269,126.061981 252.590469,124.196274 256.343689,119.517265 
	C262.956024,111.273926 273.979797,109.803688 282.331085,115.355232 
	C290.771759,120.966202 293.604645,131.891907 288.960236,140.922379 
	C283.220215,152.083221 267.358398,155.676498 258.986298,146.301224 
	C252.227722,138.732788 244.845367,137.350571 235.706360,137.700302 
	C239.041016,132.909698 236.278809,129.245880 234.035965,125.518753 
z"/>
<path fill="#DA0545" opacity="1.000000" stroke="none" 
	d="
M49.009659,121.994202 
	C49.595074,122.461258 50.180489,122.928314 50.952057,124.028259 
	C53.155823,125.439713 55.133305,126.728935 57.199329,126.891281 
	C61.596218,127.236786 66.039116,126.996826 71.570663,126.996826 
	C70.713730,129.804703 70.706596,132.631989 69.464577,133.363968 
	C65.953545,135.433197 62.481361,138.101746 57.740261,137.154022 
	C56.374538,136.880997 54.647026,138.417831 53.085388,139.124893 
	C53.085384,139.124893 53.012753,139.017349 52.740601,139.050171 
	C52.024353,139.471985 51.580257,139.860962 51.136158,140.249939 
	C51.136158,140.249939 51.111904,140.128494 50.904205,140.199783 
	C50.491432,140.558746 50.286362,140.846420 50.081284,141.134094 
	C50.081284,141.134094 50.045467,141.044754 49.836319,141.155060 
	C49.453075,141.569153 49.278980,141.872955 49.104889,142.176758 
	C49.104885,142.176758 49.066124,142.071182 48.726608,142.066757 
	C44.863873,142.570038 42.564751,144.143677 43.074394,148.163223 
	C42.831650,148.411087 42.588898,148.658951 41.658733,148.938629 
	C34.305492,150.163544 27.661598,151.336166 21.860615,146.222870 
	C21.510035,145.913849 20.352402,146.520432 19.570299,146.700989 
	C19.570299,146.700989 19.484419,146.590652 19.508331,146.246918 
	C18.997850,145.625092 18.463455,145.346985 17.929060,145.068878 
	C17.929060,145.068878 17.999084,145.000000 17.955032,144.709106 
	C17.465002,144.056656 17.019022,143.695099 16.573044,143.333542 
	C16.573044,143.333542 16.697060,143.134171 16.678272,142.957916 
	C16.364231,142.565140 16.068977,142.348618 15.773724,142.132095 
	C15.773724,142.132095 15.891541,142.079407 15.913620,141.705261 
	C15.285193,136.213394 14.634687,131.095673 13.984182,125.977966 
	C13.984182,125.977966 14.001743,125.996063 14.354647,125.929077 
	C15.104753,124.554550 15.501957,123.247017 15.899161,121.939476 
	C15.899162,121.939476 15.995603,121.957001 16.252682,121.830856 
	C17.012024,120.823090 17.514288,119.941467 18.016550,119.059837 
	C18.016550,119.059837 17.995808,119.005318 18.339605,118.971527 
	C19.018887,118.482605 19.354370,118.027481 19.689854,117.572350 
	C19.689854,117.572350 19.799931,117.789268 20.100843,117.796959 
	C26.974970,114.463890 33.822872,113.084480 41.118683,114.903206 
	C41.118683,114.903206 41.017033,114.975777 41.035820,115.325516 
	C42.441456,116.377762 43.828304,117.080261 45.215153,117.782761 
	C45.215153,117.782761 44.984257,117.951942 45.063313,118.237228 
	C46.431465,119.679749 47.720566,120.836975 49.009659,121.994202 
z"/>
<path fill="#DA0391" opacity="1.000000" stroke="none" 
	d="
M114.094795,46.785782 
	C117.024231,50.613899 119.953659,54.442013 122.699249,58.608864 
	C120.375160,59.282242 118.386879,59.499752 119.988838,62.648613 
	C120.763580,64.171486 120.933426,66.122635 120.957809,67.885674 
	C121.059082,75.209206 121.103638,82.536926 120.962662,89.859138 
	C120.875984,94.361168 122.470451,97.363220 126.921036,98.550735 
	C122.678741,103.937111 118.630150,109.046982 114.157211,114.114258 
	C112.821686,113.163910 111.886421,112.278740 111.006950,111.341240 
	C110.304604,110.592545 109.670189,109.780113 109.004585,108.663200 
	C109.001755,107.886726 108.999962,107.443031 108.999542,106.535545 
	C109.612053,100.719124 110.251389,95.369423 110.811485,90.011452 
	C110.929260,88.884872 110.830437,87.719528 110.703789,86.586311 
	C110.159904,81.719734 109.568405,76.858482 109.049080,71.583069 
	C109.404266,69.063644 109.997421,66.948402 109.939957,64.850990 
	C109.840790,61.231560 109.337242,57.623219 109.365768,54.001484 
	C110.816238,52.657410 111.904305,51.322071 113.025070,49.646286 
	C113.403450,48.465824 113.749123,47.625801 114.094795,46.785782 
z"/>
<path fill="#7003D8" opacity="1.000000" stroke="none" 
	d="
M207.097290,174.227631 
	C206.665100,175.415115 206.232910,176.602615 205.174866,177.898865 
	C203.915970,177.226242 202.739975,176.447891 202.735611,175.663010 
	C202.699921,169.248901 203.051605,162.831375 202.967270,156.419067 
	C202.724670,137.972748 202.310684,119.528732 202.034576,101.082764 
	C202.007812,99.295738 201.924011,97.151833 202.804932,95.773041 
	C206.024246,90.734291 206.817215,85.944862 203.197021,80.736877 
	C202.698822,80.020172 203.673447,78.279663 203.966202,77.013138 
	C205.491516,79.479012 207.016830,81.944885 208.506042,84.864075 
	C208.659027,85.551331 208.848129,85.785263 209.037216,86.019196 
	C209.037216,86.019203 209.209457,86.168243 209.138947,86.716759 
	C209.045624,92.042870 209.138062,96.824265 208.980606,101.597420 
	C208.182129,125.803261 210.946075,150.101990 207.097290,174.227631 
z"/>
<path fill="#DC017D" opacity="1.000000" stroke="none" 
	d="
M108.998169,106.999329 
	C108.999962,107.443031 109.001755,107.886726 109.003014,109.056946 
	C108.271507,116.924385 107.557915,124.067162 106.802742,131.205536 
	C106.382675,135.176315 103.553459,139.569366 109.085960,142.452576 
	C109.549911,142.694351 109.054596,144.776840 109.003952,146.403732 
	C109.001976,147.868866 109.000984,148.934433 108.673096,150.173309 
	C107.653877,151.449249 106.511292,152.486908 106.341370,153.664902 
	C105.117111,162.152359 104.161400,170.678528 102.939171,179.166321 
	C102.698517,180.837555 101.670769,182.395447 100.854698,183.699249 
	C97.168869,181.195770 99.108101,177.891327 99.373894,174.928070 
	C100.160515,173.236252 100.578735,171.616318 100.997086,169.664230 
	C100.997330,168.889282 100.997444,168.446472 100.997070,167.574524 
	C100.548042,160.575180 99.920242,154.010635 99.712715,147.432800 
	C99.569435,142.891403 99.747154,138.302429 100.254738,133.787933 
	C100.819084,128.768646 102.426567,123.830452 102.631508,118.818176 
	C102.801666,114.656593 101.601418,110.438034 100.999008,106.246040 
	C100.278725,101.233856 99.600082,96.214279 98.746063,91.224838 
	C98.657082,90.704971 97.503494,90.367332 96.843857,89.945152 
	C97.110008,89.439087 97.376160,88.933014 98.226685,88.206902 
	C105.319221,86.468819 106.871887,88.082298 105.242508,94.667702 
	C104.929459,95.932938 104.459618,97.185280 104.344917,98.468842 
	C104.002220,102.303780 104.857559,105.570709 108.998169,106.999329 
z"/>
<path fill="#6003D8" opacity="1.000000" stroke="none" 
	d="
M207.425262,174.110260 
	C210.946075,150.101990 208.182129,125.803261 208.980606,101.597420 
	C209.138062,96.824265 209.045624,92.042870 209.103821,86.825096 
	C209.417999,86.696892 209.696808,87.008865 210.053162,87.837433 
	C210.241241,88.609970 210.421417,88.799797 210.671249,88.923515 
	C212.118210,91.676323 213.565170,94.429123 215.020050,97.943306 
	C215.445114,104.637192 213.877945,110.786316 216.966156,116.434036 
	C217.107208,116.691971 217.001968,117.089920 216.995605,117.422348 
	C216.722931,131.682877 216.448456,145.943390 216.174194,160.203903 
	C216.174194,160.203903 216.142731,160.095413 215.857147,160.176941 
	C215.211456,161.249161 214.851364,162.239868 214.491272,163.230560 
	C212.245255,166.817993 209.999237,170.405426 207.425262,174.110260 
z"/>
<path fill="#7B04D5" opacity="1.000000" stroke="none" 
	d="
M204.018677,76.577202 
	C203.673447,78.279663 202.698822,80.020172 203.197021,80.736877 
	C206.817215,85.944862 206.024246,90.734291 202.804932,95.773041 
	C201.924011,97.151833 202.007812,99.295738 202.034576,101.082764 
	C202.310684,119.528732 202.724670,137.972748 202.967270,156.419067 
	C203.051605,162.831375 202.699921,169.248901 202.735611,175.663010 
	C202.739975,176.447891 203.915970,177.226242 204.897217,178.059036 
	C203.088470,181.407440 200.931503,184.704453 198.415649,187.723236 
	C198.705032,184.963531 199.353287,182.482056 200.266022,179.778732 
	C200.022385,178.370499 199.514252,177.184143 199.005737,175.664795 
	C199.004883,174.887772 199.004425,174.443756 199.299744,173.704941 
	C199.721283,172.932144 199.956833,172.454224 199.957138,171.976135 
	C199.974457,144.738800 199.977951,117.501427 199.943024,90.264114 
	C199.942017,89.480713 199.492523,88.703224 199.287460,87.913811 
	C198.515839,84.943344 197.758820,81.969070 196.996475,78.621552 
	C196.997131,77.497505 196.997650,76.748146 197.367767,75.960052 
	C200.467606,75.038094 202.774750,73.930893 201.648422,70.289070 
	C201.015335,68.242073 200.402023,66.132584 200.224930,64.014030 
	C199.952698,60.757591 198.280075,59.654499 195.261261,60.015335 
	C196.973373,57.440216 198.685501,54.865093 200.922318,51.981522 
	C201.592850,51.344040 201.738693,51.015011 201.884552,50.685982 
	C201.884552,50.685982 201.915085,50.281586 202.449310,50.155891 
	C206.654068,51.649113 204.614471,54.718544 204.757324,57.199066 
	C204.945618,60.468277 204.964890,63.747227 205.056824,67.021988 
	C204.728271,70.061745 204.399719,73.101501 204.018677,76.577202 
z"/>
<path fill="#D80651" opacity="1.000000" stroke="none" 
	d="
M88.308182,248.154587 
	C80.885902,250.946548 74.521271,248.655579 69.219116,243.492325 
	C63.499348,237.922409 61.891209,230.973404 64.523888,223.347260 
	C67.160042,215.711105 72.805679,211.526550 80.649193,210.216934 
	C82.443977,209.917252 84.296822,209.965240 86.562950,210.146225 
	C86.998497,210.626541 86.994041,210.813873 86.557114,211.000122 
	C83.158913,211.715378 77.667336,212.326736 77.632492,213.164902 
	C77.384171,219.138336 77.491806,225.370453 79.089226,231.071060 
	C79.856895,233.810577 80.701546,235.693146 79.831993,238.701172 
	C77.272934,247.553680 73.715614,248.124008 86.391510,247.986786 
	C87.286613,248.056503 87.797394,248.105545 88.308182,248.154587 
z"/>
<path fill="#D104C6" opacity="1.000000" stroke="none" 
	d="
M164.052032,202.132492 
	C158.212128,201.902939 152.372223,201.673386 146.469849,201.224884 
	C146.984970,200.914490 147.562531,200.823029 148.140106,200.731583 
	C148.147202,200.558960 148.154282,200.386353 148.161377,200.213745 
	C147.438629,200.131165 146.715897,200.048599 145.978638,199.719589 
	C145.807556,199.213608 145.650986,198.954041 145.494400,198.694489 
	C145.332047,199.119171 145.169708,199.543854 144.671967,199.975357 
	C143.889343,199.976410 143.442108,199.970642 142.948517,199.581268 
	C142.268814,197.207642 141.228104,195.245941 141.087631,193.221741 
	C140.801834,189.103302 141.137756,184.945236 140.959030,180.814682 
	C140.815033,177.486664 140.868195,174.378464 144.413574,172.292709 
	C149.525650,172.459549 154.229691,172.624313 158.957840,173.099426 
	C158.996765,173.616806 159.011597,173.823807 158.781601,174.330917 
	C158.034103,175.427826 157.160416,176.192917 157.089081,177.026642 
	C156.628418,182.410751 156.105698,187.807556 156.053848,193.204529 
	C155.969376,201.996964 154.863724,200.900864 164.005157,201.280518 
	C164.028671,201.753952 164.040344,201.943222 164.052032,202.132492 
z"/>
<path fill="#DD0076" opacity="1.000000" stroke="none" 
	d="
M96.615707,90.019409 
	C97.503494,90.367332 98.657082,90.704971 98.746063,91.224838 
	C99.600082,96.214279 100.278725,101.233856 100.999008,106.246040 
	C101.601418,110.438034 102.801666,114.656593 102.631508,118.818176 
	C102.426567,123.830452 100.819084,128.768646 100.254738,133.787933 
	C99.747154,138.302429 99.569435,142.891403 99.712715,147.432800 
	C99.920242,154.010635 100.548042,160.575180 100.627548,167.530807 
	C96.417007,166.101379 91.269730,165.350311 92.996124,158.531647 
	C92.999313,150.375305 93.001495,142.687653 93.353722,134.941971 
	C96.016968,131.231262 98.624626,128.030167 97.243042,122.863693 
	C96.144386,118.755272 96.054337,113.886108 97.161247,109.800262 
	C98.622559,104.406235 95.828575,101.407639 93.001602,97.726837 
	C92.755516,96.988998 92.518547,96.523186 92.281586,96.057373 
	C92.258476,95.726143 92.371460,95.450737 93.111588,94.967232 
	C94.037323,93.761314 94.471992,92.819321 94.906662,91.877327 
	C94.906670,91.877327 94.961586,91.955040 95.162666,91.858582 
	C95.569221,91.486183 95.774689,91.210243 95.980156,90.934303 
	C95.983788,90.590042 96.119591,90.309830 96.615707,90.019409 
z"/>
<path fill="#DA0383" opacity="1.000000" stroke="none" 
	d="
M101.006012,184.005600 
	C101.670769,182.395447 102.698517,180.837555 102.939171,179.166321 
	C104.161400,170.678528 105.117111,162.152359 106.341370,153.664902 
	C106.511292,152.486908 107.653877,151.449249 108.958740,150.389923 
	C110.096359,153.252411 111.001022,156.062881 111.065956,158.892609 
	C111.193604,164.455460 110.819267,170.028351 110.718033,175.598282 
	C110.606712,181.723114 110.431831,187.852371 110.569984,193.973251 
	C110.621803,196.269043 111.475899,198.546722 111.964226,200.832657 
	C110.261955,202.810898 108.559685,204.789154 106.298668,207.032623 
	C105.574303,207.645401 105.408691,207.992935 105.243073,208.340469 
	C105.243080,208.340469 105.315620,208.238708 104.948715,208.184921 
	C103.110985,206.093201 99.981735,202.838425 100.439011,202.215195 
	C103.362640,198.230606 100.460754,194.734650 100.317841,191.089386 
	C100.229874,190.619354 100.141907,190.149323 100.348755,189.062469 
	C100.764381,186.965622 100.885193,185.485611 101.006012,184.005600 
z"/>
<path fill="#D80772" opacity="1.000000" stroke="none" 
	d="
M100.195602,191.452835 
	C100.460754,194.734650 103.362640,198.230606 100.439011,202.215195 
	C99.981735,202.838425 103.110985,206.093201 104.974701,208.241745 
	C101.116470,213.831024 100.337029,219.531403 102.170807,226.458008 
	C103.932098,233.110886 101.903908,239.579498 95.126785,243.965027 
	C93.630249,242.091232 92.206032,240.265289 92.202881,238.436890 
	C92.192421,232.381027 93.212067,226.288940 92.801659,220.281433 
	C92.562561,216.781525 90.347893,213.416611 89.008820,209.719513 
	C88.986115,209.267151 88.976685,209.086212 88.967262,208.905273 
	C93.903374,204.010971 98.505829,198.899826 100.195602,191.452835 
z"/>
<path fill="#6A06D9" opacity="1.000000" stroke="none" 
	d="
M205.337799,66.839066 
	C204.964890,63.747227 204.945618,60.468277 204.757324,57.199066 
	C204.614471,54.718544 206.654068,51.649113 202.589874,50.009743 
	C202.120850,46.629288 202.556488,43.160351 201.868042,39.931053 
	C200.230377,32.249271 201.618454,25.632872 207.676361,20.294613 
	C209.611069,22.541191 212.359894,24.477831 212.486389,26.572784 
	C213.064850,36.154507 212.908249,45.780609 213.015717,55.390766 
	C210.550064,59.145889 208.084427,62.901012 205.337799,66.839066 
z"/>
<path fill="#D8048D" opacity="1.000000" stroke="none" 
	d="
M112.360153,200.871338 
	C111.475899,198.546722 110.621803,196.269043 110.569984,193.973251 
	C110.431831,187.852371 110.606712,181.723114 110.718033,175.598282 
	C110.819267,170.028351 111.193604,164.455460 111.065956,158.892609 
	C111.001022,156.062881 110.096359,153.252411 109.285645,150.216614 
	C109.000984,148.934433 109.001976,147.868866 109.340591,146.354431 
	C110.456024,144.606766 111.233833,143.307953 112.250458,142.275787 
	C115.015282,147.670334 117.541283,152.798218 119.686348,157.955719 
	C115.906059,158.813919 116.480576,161.191269 116.730789,163.802582 
	C117.617821,173.059616 118.249397,182.340942 119.008766,191.610519 
	C119.222359,194.217911 119.542183,196.816589 119.813278,199.419266 
	C117.460892,199.916183 115.108490,200.413101 112.360153,200.871338 
z"/>
<path fill="#DC0367" opacity="1.000000" stroke="none" 
	d="
M92.916016,44.236870 
	C87.744797,43.842480 84.493263,40.719017 81.809868,35.847046 
	C78.551086,28.011997 81.062492,20.939713 81.886131,13.847840 
	C81.886131,13.847840 81.944450,13.952051 82.255768,13.932673 
	C86.039581,12.263572 89.512062,10.613848 92.989655,9.427328 
	C93.087418,13.363078 92.311928,17.152313 93.440796,20.246855 
	C96.435989,28.457565 95.120895,36.291733 92.916016,44.236870 
z"/>
<path fill="#8F07DA" opacity="1.000000" stroke="none" 
	d="
M189.114716,247.022369 
	C186.170059,242.485413 185.630951,237.257492 187.878723,232.768173 
	C191.755432,225.025513 190.085495,218.428604 185.777725,211.797974 
	C185.147797,210.828354 184.666870,209.761948 184.351105,208.529465 
	C185.707642,209.491470 186.830063,210.664337 188.194016,212.089569 
	C189.248444,207.555573 190.126755,203.778885 191.370270,199.994370 
	C192.346573,199.036392 192.942505,198.076019 193.573654,197.139389 
	C194.063553,196.412384 194.597427,195.715012 195.111755,195.004471 
	C195.430161,198.337051 195.748566,201.669632 196.048676,205.805054 
	C195.329910,213.379013 194.629425,220.150131 194.105011,225.219376 
	C195.260864,227.217545 196.766373,228.654907 196.839127,230.161453 
	C197.069641,234.934067 197.068573,239.764206 196.573196,244.511185 
	C196.159210,248.477997 194.148254,250.891937 189.764999,248.172104 
	C189.764999,248.172104 189.844498,248.105194 189.815979,247.910553 
	C189.658295,247.392487 189.434036,247.161301 189.114716,247.022369 
z"/>
<path fill="#4F06D5" opacity="1.000000" stroke="none" 
	d="
M216.450012,160.015182 
	C216.448456,145.943390 216.722931,131.682877 216.995605,117.422348 
	C217.001968,117.089920 217.107208,116.691971 216.966156,116.434036 
	C213.877945,110.786316 215.445114,104.637192 215.047577,98.299011 
	C216.986801,101.379379 218.906418,104.865417 220.692963,108.966133 
	C221.233429,112.246887 221.815292,114.940613 222.608719,117.570511 
	C223.276596,119.784279 224.864807,121.921005 224.873871,124.096725 
	C224.905914,131.776855 224.434250,139.459076 224.153625,147.140518 
	C224.153625,147.140518 224.113083,147.156937 223.760864,147.117157 
	C219.851959,147.815262 220.645187,150.532288 220.744247,152.933472 
	C219.404770,155.231125 218.065292,157.528793 216.450012,160.015182 
z"/>
<path fill="#8B03DB" opacity="1.000000" stroke="none" 
	d="
M195.212708,194.674271 
	C194.597427,195.715012 194.063553,196.412384 193.573654,197.139389 
	C192.942505,198.076019 192.346573,199.036392 191.368073,199.660843 
	C190.998611,198.890488 190.996567,198.445847 191.239609,197.812271 
	C191.321732,196.416000 191.158752,195.208633 190.996857,193.551483 
	C191.087280,190.949280 191.381760,188.782349 191.230621,186.646973 
	C190.554276,177.092361 189.750900,167.546738 188.995926,157.568817 
	C188.986069,155.425476 188.973679,153.711182 188.972504,151.991058 
	C188.983734,151.985214 188.979691,151.960236 189.231140,151.800568 
	C189.641617,151.083038 189.800629,150.525162 189.979935,149.981735 
	C190.000229,149.996170 189.961227,149.961075 190.301910,149.971848 
	C191.426666,149.657547 192.210739,149.332458 193.387985,149.015198 
	C194.853348,150.771439 196.710068,152.459137 196.850906,154.279572 
	C197.276367,159.779312 196.934647,165.334381 197.142212,170.858475 
	C197.182388,171.927368 198.354187,172.953751 199.003983,173.999741 
	C199.004425,174.443756 199.004883,174.887772 198.696014,175.825592 
	C195.980713,178.838028 196.861481,179.914871 200.001556,180.000595 
	C199.353287,182.482056 198.705032,184.963531 198.097092,187.857666 
	C197.196152,190.294907 196.254898,192.319489 195.212708,194.674271 
z"/>
<path fill="#DB0475" opacity="1.000000" stroke="none" 
	d="
M93.171829,44.480690 
	C95.120895,36.291733 96.435989,28.457565 93.440796,20.246855 
	C92.311928,17.152313 93.087418,13.363078 92.992012,9.129381 
	C92.988075,7.771588 92.986893,7.174944 92.985710,6.578300 
	C93.434456,6.419277 93.883202,6.260255 94.975388,6.386929 
	C98.427887,7.433268 101.236961,8.193913 103.795677,9.149268 
	C103.915703,10.808494 104.286079,12.273008 104.656456,13.737523 
	C104.264885,13.608891 103.873314,13.480258 103.481743,13.351625 
	C102.396446,15.669432 100.092789,18.189787 100.438560,20.269680 
	C101.870049,28.880314 101.858368,37.425125 100.655579,46.027428 
	C99.856033,46.027473 99.399353,46.035587 98.942680,46.043705 
	C97.104332,45.603973 95.265991,45.164242 93.171829,44.480690 
z"/>
<path fill="#D8049E" opacity="1.000000" stroke="none" 
	d="
M127.114746,98.274246 
	C122.470451,97.363220 120.875984,94.361168 120.962662,89.859138 
	C121.103638,82.536926 121.059082,75.209206 120.957809,67.885674 
	C120.933426,66.122635 120.763580,64.171486 119.988838,62.648613 
	C118.386879,59.499752 120.375160,59.282242 122.906219,58.904144 
	C125.852417,59.550716 128.407791,60.240742 130.907745,61.650230 
	C129.950180,66.636620 128.276672,70.911644 128.321365,75.168640 
	C128.393723,82.064468 125.469429,89.517754 130.743500,95.974838 
	C129.372391,96.894363 128.243561,97.584312 127.114746,98.274246 
z"/>
<path fill="#BB04D9" opacity="1.000000" stroke="none" 
	d="
M164.435455,202.258942 
	C164.040344,201.943222 164.028671,201.753952 164.355026,201.228363 
	C166.128174,197.590805 168.182465,194.406342 168.833054,190.957123 
	C169.556335,187.122482 169.015121,183.046524 168.997681,179.075729 
	C168.975464,174.018127 167.088333,172.549011 161.935944,173.529831 
	C160.969345,173.713837 159.996445,173.864670 159.026443,174.030823 
	C159.011597,173.823807 158.996765,173.616806 159.245132,172.866852 
	C163.003540,171.344910 166.498749,170.365921 170.304443,169.574066 
	C172.400818,170.878204 175.502243,171.761887 175.748779,173.151886 
	C176.924118,179.778976 177.341263,186.541931 177.993164,193.259949 
	C178.413513,197.591843 176.799866,200.929443 172.992676,203.139084 
	C170.268066,202.887848 167.543472,202.636612 164.435455,202.258942 
z"/>
<path fill="#7003D8" opacity="1.000000" stroke="none" 
	d="
M211.209564,257.091949 
	C208.335342,257.273987 205.461136,257.456024 202.132904,257.005310 
	C200.591782,244.121658 198.409531,231.800095 204.375732,219.988037 
	C206.148376,220.662659 207.572617,221.331177 208.998215,222.448441 
	C208.666672,232.582794 208.332794,242.268341 208.001541,251.953995 
	C207.918442,254.383499 207.902206,256.776794 211.209564,257.091949 
z"/>
<path fill="#9703D9" opacity="1.000000" stroke="none" 
	d="
M188.991943,64.981567 
	C189.741150,64.597633 190.490372,64.213692 191.590942,64.187920 
	C191.630692,68.365921 190.909225,72.205673 191.093582,76.001427 
	C191.466705,83.684402 192.838715,91.346130 192.799576,99.011513 
	C192.776596,103.510948 190.830353,108.000565 189.481598,112.264091 
	C186.815445,108.700981 184.416901,105.368378 182.432495,102.007187 
	C183.564804,100.410522 184.865082,98.857658 184.906525,97.271904 
	C185.173431,87.060600 184.209732,76.702461 189.614182,67.280670 
	C189.893600,66.793549 189.221207,65.760468 188.991943,64.981567 
z"/>
<path fill="#4F06D5" opacity="1.000000" stroke="none" 
	d="
M219.521179,225.021133 
	C229.563446,235.216553 228.285873,246.683365 215.676620,254.913284 
	C214.827469,251.261612 214.911758,247.864700 213.978424,244.775208 
	C211.632812,237.010696 213.560944,230.558640 219.123627,224.926178 
	C219.250641,224.977509 219.521179,225.021133 219.521179,225.021133 
z"/>
<path fill="#3603DC" opacity="1.000000" stroke="none" 
	d="
M235.975739,45.896706 
	C233.920532,47.613319 231.865311,49.329929 229.121948,50.874100 
	C228.084534,49.218655 227.499161,47.744267 227.444641,46.250507 
	C227.373566,44.302944 227.984299,42.321175 227.844666,40.387108 
	C227.359772,33.669605 226.583176,26.972158 226.169189,20.251581 
	C226.105453,19.216982 227.363861,18.100941 228.315979,17.173458 
	C229.786179,19.100599 231.234222,20.755331 232.059464,22.677456 
	C233.997681,27.191969 239.214722,30.322792 237.672440,36.343716 
	C236.872147,39.467915 236.526672,42.708626 235.975739,45.896706 
z"/>
<path fill="#8103D7" opacity="1.000000" stroke="none" 
	d="
M204.027313,219.981918 
	C198.409531,231.800095 200.591782,244.121658 201.810974,256.774811 
	C196.519989,256.432465 192.802490,253.214462 189.818939,248.512985 
	C194.148254,250.891937 196.159210,248.477997 196.573196,244.511185 
	C197.068573,239.764206 197.069641,234.934067 196.839127,230.161453 
	C196.766373,228.654907 195.260864,227.217545 194.105011,225.219376 
	C194.629425,220.150131 195.329910,213.379013 196.056778,206.209106 
	C197.382004,207.938431 198.680817,210.066559 199.878128,212.868042 
	C198.181870,217.669037 200.941254,218.926010 204.013290,219.980667 
	C204.008972,219.987335 204.027313,219.981918 204.027313,219.981918 
z"/>
<path fill="#DA0164" opacity="1.000000" stroke="none" 
	d="
M89.022095,209.990967 
	C90.347893,213.416611 92.562561,216.781525 92.801659,220.281433 
	C93.212067,226.288940 92.192421,232.381027 92.202881,238.436890 
	C92.206032,240.265289 93.630249,242.091232 94.780334,243.989990 
	C94.990341,244.348389 94.823532,244.635117 94.035835,244.982773 
	C92.634430,245.762695 91.853920,246.481674 91.073402,247.200668 
	C90.356369,247.536118 89.639343,247.871567 88.615250,248.180801 
	C87.797394,248.105545 87.286613,248.056503 86.439194,247.591202 
	C86.125916,244.460342 86.122864,241.745178 86.179146,239.031250 
	C86.254272,235.408386 87.728088,231.008179 86.187462,228.330704 
	C83.234261,223.198273 85.002579,218.972076 86.299332,214.341187 
	C86.605156,213.249069 86.763428,212.115646 86.989578,211.001221 
	C86.994041,210.813873 86.998497,210.626541 87.009811,210.158035 
	C87.016670,209.876846 87.175415,209.762070 87.683228,209.845001 
	C88.468056,209.948929 88.745079,209.969940 89.022095,209.990967 
z"/>
<path fill="#AB04D8" opacity="1.000000" stroke="none" 
	d="
M173.305634,203.287796 
	C176.799866,200.929443 178.413513,197.591843 177.993164,193.259949 
	C177.341263,186.541931 176.924118,179.778976 175.748779,173.151886 
	C175.502243,171.761887 172.400818,170.878204 170.575134,169.335175 
	C172.909286,167.554657 175.283234,166.200180 177.938965,164.950684 
	C179.149246,165.034348 180.077744,165.013016 181.112411,165.212463 
	C181.414734,165.710358 181.674393,165.900940 181.997070,166.412994 
	C181.973648,169.162216 181.677414,171.542252 182.002472,173.834183 
	C182.346832,176.262070 183.815079,178.599258 183.846161,180.988373 
	C183.907852,185.728012 183.149460,190.472549 183.049393,195.221771 
	C182.958008,199.558899 181.826782,202.892075 177.041687,203.818146 
	C175.900650,203.690933 174.759613,203.563721 173.305634,203.287796 
z"/>
<path fill="#D70495" opacity="1.000000" stroke="none" 
	d="
M120.211121,199.665009 
	C119.542183,196.816589 119.222359,194.217911 119.008766,191.610519 
	C118.249397,182.340942 117.617821,173.059616 116.730789,163.802582 
	C116.480576,161.191269 115.906059,158.813919 119.671906,157.965637 
	C120.038399,157.945984 120.060638,157.932098 120.046402,158.311371 
	C120.260574,161.813400 122.024422,163.118958 125.023788,162.956024 
	C124.997200,162.981232 125.053474,162.941650 125.151733,163.173798 
	C125.527657,163.583344 125.805321,163.760757 126.039642,163.963989 
	C125.996315,163.989838 126.074234,163.924362 126.045288,164.186493 
	C126.011131,164.624084 126.005913,164.799530 125.744980,165.190338 
	C125.825127,166.224960 126.161003,167.044250 126.496880,167.863525 
	C126.998924,167.025330 127.500969,166.187134 128.308350,165.438934 
	C130.247726,166.611847 131.881760,167.694748 133.078018,168.843048 
	C131.758026,168.941483 130.875809,168.974533 129.907532,168.839050 
	C129.551300,168.783203 129.281143,168.895889 128.984741,169.326996 
	C128.635941,170.428482 128.313370,171.211563 127.600410,172.002014 
	C125.807396,173.677078 123.365799,175.245575 123.195389,177.030869 
	C122.666847,182.568253 122.676430,188.217789 123.184280,193.759018 
	C123.353180,195.601791 125.660118,197.248611 126.995651,198.992981 
	C127.001671,199.000946 127.017105,199.017975 127.011337,199.217361 
	C127.005562,199.416748 126.996590,199.815567 126.996590,199.815567 
	C124.867386,199.847305 122.738174,199.879028 120.211121,199.665009 
z"/>
<path fill="#D001CB" opacity="1.000000" stroke="none" 
	d="
M153.000336,62.224808 
	C153.818741,62.448357 154.637177,62.671909 156.004822,63.135201 
	C156.706085,63.914894 156.858109,64.454857 157.011322,65.371925 
	C157.618073,69.117432 161.160965,71.684120 159.103958,75.860573 
	C157.041611,80.047882 156.984863,84.587097 158.687042,88.982063 
	C157.580368,89.292366 156.805130,89.592049 155.589005,89.968605 
	C152.763260,90.010391 150.378418,89.975296 148.000671,89.570045 
	C150.486633,85.480049 151.030945,81.742195 149.011261,77.487419 
	C146.931992,73.107101 148.251755,69.188583 151.614899,65.759491 
	C152.430328,64.928078 152.556961,63.421131 153.000336,62.224808 
z"/>
<path fill="#9E03D7" opacity="1.000000" stroke="none" 
	d="
M177.306213,204.036789 
	C181.826782,202.892075 182.958008,199.558899 183.049393,195.221771 
	C183.149460,190.472549 183.907852,185.728012 183.846161,180.988373 
	C183.815079,178.599258 182.346832,176.262070 182.002472,173.834183 
	C181.677414,171.542252 181.973648,169.162216 182.392090,166.411743 
	C187.149826,165.700241 187.542862,168.760406 187.510864,171.859909 
	C187.435837,179.125229 187.094696,186.388687 187.094528,193.652908 
	C187.094498,194.769547 188.332413,195.886215 189.165375,197.247131 
	C189.886810,197.661316 190.440659,197.831253 190.994507,198.001190 
	C190.996567,198.445847 190.998611,198.890488 191.002869,199.668671 
	C190.126755,203.778885 189.248444,207.555573 188.194016,212.089569 
	C186.830063,210.664337 185.707642,209.491470 184.267517,208.186707 
	C183.949829,208.054825 183.973541,208.028122 183.932388,207.703522 
	C183.229980,206.940582 182.568710,206.502243 181.907455,206.063904 
	C180.461884,205.461090 179.016327,204.858261 177.306213,204.036789 
z"/>
<path fill="#D700B8" opacity="1.000000" stroke="none" 
	d="
M139.968323,62.134087 
	C140.421249,62.087353 140.874191,62.040615 141.663177,62.509567 
	C141.667709,66.436226 140.794296,69.901421 141.128952,73.245720 
	C141.658722,78.539764 142.997467,83.752861 143.636902,88.958351 
	C140.856628,87.018013 138.551743,84.508339 135.197128,87.560616 
	C135.116531,87.633949 132.151688,85.582314 132.170151,84.551140 
	C132.296585,77.491737 132.861160,70.440170 133.268250,63.657616 
	C135.867813,63.066502 137.918076,62.600292 139.968323,62.134087 
z"/>
<path fill="#5D05D8" opacity="1.000000" stroke="none" 
	d="
M213.372574,55.345314 
	C212.908249,45.780609 213.064850,36.154507 212.486389,26.572784 
	C212.359894,24.477831 209.611069,22.541191 207.994385,20.152205 
	C209.729797,18.530388 211.540771,17.288006 213.949402,16.325994 
	C216.030426,16.738537 217.513794,16.870707 219.181549,17.271496 
	C219.597549,18.639545 220.168884,19.802183 219.978912,20.823164 
	C219.713257,22.250860 218.418854,23.555634 218.366852,24.943071 
	C218.101791,32.014252 217.832565,39.106472 218.137756,46.166557 
	C218.247498,48.705723 219.957230,51.175728 220.936768,53.677292 
	C218.534317,54.218147 216.131882,54.759003 213.372574,55.345314 
z"/>
<path fill="#6003D8" opacity="1.000000" stroke="none" 
	d="
M218.996597,224.874832 
	C213.560944,230.558640 211.632812,237.010696 213.978424,244.775208 
	C214.911758,247.864700 214.827469,251.261612 215.339279,254.988403 
	C215.472107,255.458206 215.429535,255.429047 215.123474,255.377319 
	C214.569855,255.583954 214.322327,255.842331 214.074783,256.100708 
	C214.074783,256.100708 214.008484,256.043762 213.744751,256.062836 
	C213.005753,256.369446 212.530457,256.656982 212.055176,256.944519 
	C212.055176,256.944550 211.657532,257.163696 211.433548,257.127808 
	C207.902206,256.776794 207.918442,254.383499 208.001541,251.953995 
	C208.332794,242.268341 208.666672,232.582794 209.224121,222.179001 
	C212.328705,221.947906 215.208725,222.435013 218.088760,222.922119 
	C218.088760,222.922119 218.013885,222.992813 218.112762,223.182281 
	C218.380173,223.672852 218.624527,223.887787 218.944687,224.016556 
	C218.944687,224.016556 218.997299,224.064835 218.990631,224.279724 
	C218.983963,224.494614 218.996597,224.874832 218.996597,224.874832 
z"/>
<path fill="#D200C2" opacity="1.000000" stroke="none" 
	d="
M143.993896,89.000206 
	C142.997467,83.752861 141.658722,78.539764 141.128952,73.245720 
	C140.794296,69.901421 141.667709,66.436226 141.998245,62.585171 
	C145.399918,62.197376 148.802612,62.249672 152.602814,62.263390 
	C152.556961,63.421131 152.430328,64.928078 151.614899,65.759491 
	C148.251755,69.188583 146.931992,73.107101 149.011261,77.487419 
	C151.030945,81.742195 150.486633,85.480049 147.677460,89.677925 
	C146.671204,90.155914 145.995255,90.155869 145.045929,90.028641 
	C144.513016,89.601036 144.253448,89.300621 143.993896,89.000206 
z"/>
<path fill="#A504DB" opacity="1.000000" stroke="none" 
	d="
M188.567490,64.942665 
	C189.221207,65.760468 189.893600,66.793549 189.614182,67.280670 
	C184.209732,76.702461 185.173431,87.060600 184.906525,97.271904 
	C184.865082,98.857658 183.564804,100.410522 182.413055,102.000305 
	C181.979462,102.022026 181.959641,101.987709 181.862610,101.765320 
	C181.568451,101.271095 181.311264,101.080017 180.704544,100.829742 
	C179.282379,99.700287 178.149734,98.710785 177.022873,97.550880 
	C177.028671,97.380478 177.038712,97.039207 177.395309,96.983864 
	C179.163986,94.455360 181.784027,91.971336 181.761871,89.511086 
	C181.695206,82.103386 180.686096,74.694466 179.789810,67.316971 
	C179.685089,66.454926 177.988449,65.786278 177.018097,64.791092 
	C177.006393,64.554199 176.998703,64.079910 176.998703,64.079910 
	C180.713470,64.354530 184.428253,64.629143 188.567490,64.942665 
z"/>
<path fill="#8B03DB" opacity="1.000000" stroke="none" 
	d="
M189.749222,112.494598 
	C190.830353,108.000565 192.776596,103.510948 192.799576,99.011513 
	C192.838715,91.346130 191.466705,83.684402 191.093582,76.001427 
	C190.909225,72.205673 191.630692,68.365921 191.906830,64.122284 
	C191.852463,63.361610 191.989716,63.109867 192.859497,63.082970 
	C194.623306,67.481384 195.810745,71.740082 196.998169,75.998779 
	C196.997650,76.748146 196.997131,77.497505 196.609604,78.708206 
	C195.815872,80.664764 195.069824,82.156975 195.056519,83.655685 
	C194.956665,94.900360 195.052155,106.146965 194.908569,117.390701 
	C194.896500,118.336670 193.583359,119.266022 192.622986,119.952568 
	C191.497284,117.299561 190.623260,114.897079 189.749222,112.494598 
z"/>
<path fill="#D603B1" opacity="1.000000" stroke="none" 
	d="
M143.636902,88.958351 
	C144.253448,89.300621 144.513016,89.601036 144.787964,90.317017 
	C140.197495,92.403481 135.591644,94.074371 130.985794,95.745255 
	C125.469429,89.517754 128.393723,82.064468 128.321365,75.168640 
	C128.276672,70.911644 129.950180,66.636620 131.009155,61.987846 
	C133.810181,61.723206 136.454346,61.840408 139.533417,62.045845 
	C137.918076,62.600292 135.867813,63.066502 133.268250,63.657616 
	C132.861160,70.440170 132.296585,77.491737 132.170151,84.551140 
	C132.151688,85.582314 135.116531,87.633949 135.197128,87.560616 
	C138.551743,84.508339 140.856628,87.018013 143.636902,88.958351 
z"/>
<path fill="#DA0383" opacity="1.000000" stroke="none" 
	d="
M108.999542,106.535545 
	C104.857559,105.570709 104.002220,102.303780 104.344917,98.468842 
	C104.459618,97.185280 104.929459,95.932938 105.242508,94.667702 
	C106.871887,88.082298 105.319221,86.468819 98.428284,87.993874 
	C100.830437,82.788612 103.615364,77.576332 107.019066,72.180519 
	C108.089981,71.996414 108.542114,71.995850 108.994247,71.995285 
	C109.568405,76.858482 110.159904,81.719734 110.703789,86.586311 
	C110.830437,87.719528 110.929260,88.884872 110.811485,90.011452 
	C110.251389,95.369423 109.612053,100.719124 108.999542,106.535545 
z"/>
<path fill="#4C02D9" opacity="1.000000" stroke="none" 
	d="
M221.287704,53.735817 
	C219.957230,51.175728 218.247498,48.705723 218.137756,46.166557 
	C217.832565,39.106472 218.101791,32.014252 218.366852,24.943071 
	C218.418854,23.555634 219.713257,22.250860 219.978912,20.823164 
	C220.168884,19.802183 219.597549,18.639545 219.347168,17.025612 
	C219.879745,16.329580 220.431091,16.148054 221.322052,15.977491 
	C222.444260,16.322237 223.226837,16.656021 224.006042,17.388123 
	C223.419678,19.958778 222.291718,22.151108 222.370514,24.299173 
	C222.520844,28.397306 223.736847,32.462627 223.818939,36.555439 
	C223.927933,41.988899 223.375000,47.435638 223.061279,53.001724 
	C223.016068,53.126778 222.978058,53.389992 222.978058,53.389992 
	C222.531586,53.524773 222.085114,53.659554 221.287704,53.735817 
z"/>
<path fill="#D80772" opacity="1.000000" stroke="none" 
	d="
M100.854691,183.699249 
	C100.885193,185.485611 100.764381,186.965622 100.383392,188.704208 
	C96.568283,182.175781 93.013359,175.388779 89.493164,168.125641 
	C89.299355,167.464233 89.070793,167.278976 88.842232,167.093704 
	C88.842232,167.093704 88.937592,167.035538 88.955170,166.673706 
	C88.981476,165.208511 88.990211,164.105148 89.302414,162.847046 
	C90.735619,161.461655 91.865372,160.231003 92.995117,159.000336 
	C91.269730,165.350311 96.417007,166.101379 100.628044,167.959930 
	C100.997444,168.446472 100.997330,168.889282 100.628540,169.736969 
	C99.841736,171.761215 99.423615,173.380569 99.005493,174.999939 
	C99.108101,177.891327 97.168869,181.195770 100.854691,183.699249 
z"/>
<path fill="#D8045D" opacity="1.000000" stroke="none" 
	d="
M82.751205,111.883553 
	C84.601456,108.671677 86.451714,105.459801 88.638626,102.111946 
	C88.975288,101.975967 89.071541,102.065834 89.048775,102.504669 
	C89.016121,105.294655 89.006226,107.645798 88.690125,110.153366 
	C86.975456,113.188889 84.737335,115.958931 84.341400,118.971115 
	C83.643326,124.282066 84.534286,129.805389 83.797607,135.106049 
	C83.499306,137.252380 80.676880,139.047897 79.001221,140.570770 
	C79.729431,136.675613 80.316490,133.174728 81.225212,129.759399 
	C82.398689,125.349075 81.472496,124.200150 77.010895,124.753098 
	C77.000076,124.327126 76.995850,124.156738 77.142937,123.692322 
	C79.510864,121.721985 81.442963,119.937210 79.812065,116.794060 
	C79.812065,116.794060 79.883324,116.943756 80.179443,116.900085 
	C81.234108,115.198799 81.992653,113.541176 82.751205,111.883553 
z"/>
<path fill="#D80651" opacity="1.000000" stroke="none" 
	d="
M76.991631,123.986359 
	C76.995850,124.156738 77.000076,124.327126 77.006142,125.186508 
	C76.900848,129.900055 76.943893,133.939056 76.559135,137.936905 
	C76.482719,138.730957 74.766640,139.367203 73.806671,140.076218 
	C67.305466,137.214279 60.624641,137.941376 53.504276,139.102997 
	C54.647026,138.417831 56.374538,136.880997 57.740261,137.154022 
	C62.481361,138.101746 65.953545,135.433197 69.464577,133.363968 
	C70.706596,132.631989 70.713730,129.804703 71.570663,126.996826 
	C66.039116,126.996826 61.596218,127.236786 57.199329,126.891281 
	C55.133305,126.728935 53.155823,125.439713 51.089531,124.275543 
	C58.402298,126.796181 65.801598,126.859550 73.986603,124.094856 
	C75.487778,123.998238 76.239708,123.992294 76.991631,123.986359 
z"/>
<path fill="#D40B8B" opacity="1.000000" stroke="none" 
	d="
M114.116409,46.383724 
	C113.749123,47.625801 113.403450,48.465824 112.652496,49.574249 
	C112.002014,48.220989 111.562950,46.600773 111.550781,44.977356 
	C111.522888,41.254852 111.861076,37.526726 111.765457,33.808216 
	C111.579102,26.560768 111.197197,19.318348 110.972366,12.010448 
	C111.048462,11.947052 111.192558,11.811141 111.192558,11.811141 
	C117.233833,17.805723 118.646622,24.952417 115.531601,32.662167 
	C113.734810,37.109268 112.664352,41.333286 114.116409,46.383724 
z"/>
<path fill="#4003D9" opacity="1.000000" stroke="none" 
	d="
M223.106476,52.876678 
	C223.375000,47.435638 223.927933,41.988899 223.818939,36.555439 
	C223.736847,32.462627 222.520844,28.397306 222.370514,24.299173 
	C222.291718,22.151108 223.419678,19.958778 224.405762,17.389631 
	C225.876175,17.002735 226.943497,17.012648 228.010803,17.022560 
	C227.363861,18.100941 226.105453,19.216982 226.169189,20.251581 
	C226.583176,26.972158 227.359772,33.669605 227.844666,40.387108 
	C227.984299,42.321175 227.373566,44.302944 227.444641,46.250507 
	C227.499161,47.744267 228.084534,49.218655 228.771790,50.878361 
	C227.977386,51.729076 226.845016,52.403088 225.044281,53.021339 
	C223.952789,52.935940 223.529633,52.906307 223.106476,52.876678 
z"/>
<path fill="#D30A5A" opacity="1.000000" stroke="none" 
	d="
M74.000076,140.363297 
	C74.766640,139.367203 76.482719,138.730957 76.559135,137.936905 
	C76.943893,133.939056 76.900848,129.900055 77.012726,125.442078 
	C81.472496,124.200150 82.398689,125.349075 81.225212,129.759399 
	C80.316490,133.174728 79.729431,136.675613 79.006042,140.954514 
	C79.350281,142.866821 79.522461,144.052307 80.056625,145.042542 
	C81.624130,147.948334 83.478256,150.705246 84.951004,153.654831 
	C86.465492,156.688019 87.662827,159.879532 88.998947,163.001770 
	C88.990211,164.105148 88.981476,165.208511 88.933304,166.725098 
	C85.128654,159.893829 81.408813,152.625137 77.564888,145.422653 
	C76.654984,143.717743 75.328392,142.235199 74.000076,140.363297 
z"/>
<path fill="#4003D9" opacity="1.000000" stroke="none" 
	d="
M224.439972,146.969574 
	C224.434250,139.459076 224.905914,131.776855 224.873871,124.096725 
	C224.864807,121.921005 223.276596,119.784279 222.608719,117.570511 
	C221.815292,114.940613 221.233429,112.246887 220.736664,109.317810 
	C222.638092,112.389992 224.248886,115.791504 226.136093,119.032043 
	C227.064041,120.625381 228.503906,121.920586 229.512466,123.944168 
	C229.050583,127.378319 228.044907,130.427429 228.764160,132.992950 
	C229.327423,135.002121 225.693314,138.114334 230.140106,139.066132 
	C228.335526,141.643631 226.530930,144.221130 224.439972,146.969574 
z"/>
<path fill="#3603DC" opacity="1.000000" stroke="none" 
	d="
M230.504547,139.083984 
	C225.693314,138.114334 229.327423,135.002121 228.764160,132.992950 
	C228.044907,130.427429 229.050583,127.378319 229.587372,124.292366 
	C231.070572,124.420303 232.279221,124.793503 233.761902,125.342735 
	C236.278809,129.245880 239.041016,132.909698 235.246765,137.636139 
	C233.633957,138.319168 232.251480,138.710510 230.504547,139.083984 
z"/>
<path fill="#320BCF" opacity="1.000000" stroke="none" 
	d="
M228.315979,17.173456 
	C226.943497,17.012648 225.876175,17.002735 224.409149,16.991314 
	C223.226837,16.656021 222.444260,16.322237 221.168121,15.742456 
	C220.152328,15.336248 219.630112,15.176036 219.107880,15.015825 
	C227.197403,13.835426 233.166656,17.727684 237.367554,23.880238 
	C242.263687,31.051006 241.421906,38.655365 236.329956,45.868046 
	C236.526672,42.708626 236.872147,39.467915 237.672440,36.343716 
	C239.214722,30.322792 233.997681,27.191969 232.059464,22.677456 
	C231.234222,20.755331 229.786179,19.100599 228.315979,17.173456 
z"/>
<path fill="#BC0CD3" opacity="1.000000" stroke="none" 
	d="
M176.585205,63.977142 
	C176.998703,64.079910 177.006393,64.554199 177.001923,65.147278 
	C175.660736,67.825272 174.324005,69.910187 172.638794,71.940628 
	C169.095230,65.379883 163.305908,64.625832 157.010117,64.994812 
	C156.858109,64.454857 156.706085,63.914894 156.331085,63.197704 
	C162.795959,63.305107 169.483841,63.589741 176.585205,63.977142 
z"/>
<path fill="#8103D7" opacity="1.000000" stroke="none" 
	d="
M197.367767,75.960052 
	C195.810745,71.740082 194.623306,67.481384 193.081085,63.043472 
	C192.975555,62.591599 193.224808,62.318939 193.990036,61.883842 
	C194.699707,61.226421 194.893417,60.731441 195.087128,60.236458 
	C195.087128,60.236458 195.062515,60.038021 195.161896,60.026680 
	C198.280075,59.654499 199.952698,60.757591 200.224930,64.014030 
	C200.402023,66.132584 201.015335,68.242073 201.648422,70.289070 
	C202.774750,73.930893 200.467606,75.038094 197.367767,75.960052 
z"/>
<path fill="#C61B5D" opacity="1.000000" stroke="none" 
	d="
M81.587875,14.039202 
	C81.062492,20.939713 78.551086,28.011997 81.787560,35.487858 
	C76.610306,31.459257 77.389793,25.718918 78.617851,20.038588 
	C79.057487,18.005087 80.373566,16.161066 81.587875,14.039202 
z"/>
<path fill="#D80651" opacity="1.000000" stroke="none" 
	d="
M19.747610,146.967957 
	C20.352402,146.520432 21.510035,145.913849 21.860615,146.222870 
	C27.661598,151.336166 34.305492,150.163544 41.390041,148.955215 
	C34.105061,153.622070 26.854118,152.493195 19.747610,146.967957 
z"/>
<path fill="#D80651" opacity="1.000000" stroke="none" 
	d="
M40.889370,114.614029 
	C33.822872,113.084480 26.974970,114.463890 20.015860,117.709946 
	C25.893421,111.746834 33.008873,111.323822 40.889370,114.614029 
z"/>
<path fill="#D40B8B" opacity="1.000000" stroke="none" 
	d="
M109.049072,71.583069 
	C108.542114,71.995850 108.089981,71.996414 107.298767,71.990326 
	C110.185921,66.088669 108.936867,60.549824 105.680496,54.702354 
	C105.738976,54.229324 106.030678,53.959694 106.401779,53.975132 
	C107.516365,53.997120 108.259865,54.003674 109.003357,54.010223 
	C109.337242,57.623219 109.840790,61.231560 109.939957,64.850990 
	C109.997421,66.948402 109.404266,69.063644 109.049072,71.583069 
z"/>
<path fill="#5D05D8" opacity="1.000000" stroke="none" 
	d="
M217.916382,222.620224 
	C215.208725,222.435013 212.328705,221.947906 209.222763,221.730240 
	C207.572617,221.331177 206.148376,220.662659 204.375732,219.988037 
	C204.027313,219.981918 204.008972,219.987335 204.010620,219.664886 
	C204.012878,218.920731 204.013474,218.499039 204.014069,218.077347 
	C208.590729,219.491013 213.167358,220.904678 217.916382,222.620224 
z"/>
<path fill="#C61B5D" opacity="1.000000" stroke="none" 
	d="
M92.646759,6.565289 
	C92.986893,7.174944 92.988075,7.771588 92.986908,8.666178 
	C89.512062,10.613848 86.039581,12.263572 82.203171,13.904418 
	C85.328773,11.447786 88.818291,9.000032 92.646759,6.565289 
z"/>
<path fill="#D603A0" opacity="1.000000" stroke="none" 
	d="
M127.428772,199.919952 
	C126.996590,199.815567 127.005562,199.416748 127.470963,199.209412 
	C132.955872,199.323013 137.975372,199.643951 142.994888,199.964890 
	C143.442108,199.970642 143.889343,199.976410 144.918396,199.983856 
	C145.500214,199.985535 145.993149,199.966019 145.993149,199.966019 
	C146.715897,200.048599 147.438629,200.131165 148.161377,200.213745 
	C148.154282,200.386353 148.147202,200.558960 148.140106,200.731583 
	C147.562531,200.823029 146.984970,200.914490 146.086929,201.047653 
	C139.797958,200.734360 133.829453,200.379349 127.428772,199.919952 
z"/>
<path fill="#D80651" opacity="1.000000" stroke="none" 
	d="
M13.741413,126.312134 
	C14.634687,131.095673 15.285193,136.213394 15.880777,141.760803 
	C12.175428,137.439484 12.392635,132.109436 13.741413,126.312134 
z"/>
<path fill="#D80651" opacity="1.000000" stroke="none" 
	d="
M43.410088,148.107025 
	C42.564751,144.143677 44.863873,142.570038 48.775421,142.094666 
	C47.357765,144.101624 45.551773,146.076233 43.410088,148.107025 
z"/>
<path fill="#D30A5A" opacity="1.000000" stroke="none" 
	d="
M77.142937,123.692322 
	C76.239708,123.992294 75.487778,123.998238 74.359894,123.997787 
	C75.734238,121.703751 77.484528,119.416107 79.523438,116.961258 
	C81.442963,119.937210 79.510864,121.721985 77.142937,123.692322 
z"/>
<path fill="#C61B5D" opacity="1.000000" stroke="none" 
	d="
M104.046028,8.954557 
	C101.236961,8.193913 98.427887,7.433268 95.336349,6.425962 
	C99.053459,6.938046 103.053032,7.696792 107.123276,8.736898 
	C107.193939,9.018259 106.963982,9.109035 106.600632,9.067009 
	C105.506866,9.001509 104.776443,8.978033 104.046028,8.954557 
z"/>
<path fill="#7003D8" opacity="1.000000" stroke="none" 
	d="
M203.749512,217.871368 
	C204.013474,218.499039 204.012878,218.920731 204.014938,219.658203 
	C200.941254,218.926010 198.181870,217.669037 199.918259,213.213165 
	C201.201584,214.478424 202.343262,216.071915 203.749512,217.871368 
z"/>
<path fill="#4003D9" opacity="1.000000" stroke="none" 
	d="
M220.965912,152.675568 
	C220.645187,150.532288 219.851959,147.815262 223.787643,147.118958 
	C223.173615,148.912933 222.180603,150.665283 220.965912,152.675568 
z"/>
<path fill="#D8045D" opacity="1.000000" stroke="none" 
	d="
M92.042191,96.301346 
	C92.518547,96.523186 92.755516,96.988998 92.736343,97.932083 
	C91.343971,99.628174 90.207756,100.847000 89.071541,102.065834 
	C89.071541,102.065834 88.975288,101.975967 88.927170,101.931015 
	C89.853645,100.105827 90.828224,98.325577 92.042191,96.301346 
z"/>
<path fill="#D40B8B" opacity="1.000000" stroke="none" 
	d="
M99.129196,46.308815 
	C99.399353,46.035587 99.856033,46.027473 100.866318,46.282013 
	C102.280098,46.696644 103.140259,46.848621 104.000214,47.000298 
	C104.000000,47.000000 103.999390,46.999557 103.998566,47.394184 
	C104.028717,48.840019 104.059692,49.891224 104.015259,50.999802 
	C103.939842,51.057167 103.794769,51.179089 103.794769,51.179089 
	C102.301750,49.644035 100.808739,48.108978 99.129196,46.308815 
z"/>
<path fill="#4003D9" opacity="1.000000" stroke="none" 
	d="
M218.730072,14.942058 
	C219.630112,15.176036 220.152328,15.336248 220.828491,15.731494 
	C220.431091,16.148054 219.879745,16.329580 219.162781,16.756992 
	C217.513794,16.870707 216.030426,16.738537 214.293365,16.339993 
	C215.477203,15.671842 216.914734,15.270066 218.730072,14.942058 
z"/>
<path fill="#D30A5A" opacity="1.000000" stroke="none" 
	d="
M82.472046,112.055931 
	C81.992653,113.541176 81.234108,115.198799 80.117966,116.844482 
	C80.571213,115.297798 81.382050,113.763054 82.472046,112.055931 
z"/>
<path fill="#D80651" opacity="1.000000" stroke="none" 
	d="
M48.939438,121.674286 
	C47.720566,120.836975 46.431465,119.679749 45.176277,118.147186 
	C46.429863,118.966034 47.649540,120.160210 48.939438,121.674286 
z"/>
<path fill="#D80651" opacity="1.000000" stroke="none" 
	d="
M45.086765,117.481323 
	C43.828304,117.080261 42.441456,116.377762 41.070595,115.273651 
	C42.377186,115.641319 43.667782,116.410599 45.086765,117.481323 
z"/>
<path fill="#4F06D5" opacity="1.000000" stroke="none" 
	d="
M214.722122,163.030807 
	C214.851364,162.239868 215.211456,161.249161 215.912598,160.187592 
	C215.820099,161.021500 215.386536,161.926270 214.722122,163.030807 
z"/>
<path fill="#D80651" opacity="1.000000" stroke="none" 
	d="
M15.623676,122.124153 
	C15.501957,123.247017 15.104753,124.554550 14.344334,125.925255 
	C14.436810,124.761887 14.892501,123.535362 15.623676,122.124153 
z"/>
<path fill="#D8045D" opacity="1.000000" stroke="none" 
	d="
M91.406349,247.168137 
	C91.853920,246.481674 92.634430,245.762695 93.794563,245.058792 
	C93.362556,245.761124 92.550926,246.448364 91.406349,247.168137 
z"/>
<path fill="#D8045D" opacity="1.000000" stroke="none" 
	d="
M94.631851,92.034103 
	C94.471992,92.819321 94.037323,93.761314 93.306137,94.844482 
	C93.458763,94.054054 93.907898,93.122459 94.631851,92.034103 
z"/>
<path fill="#D80651" opacity="1.000000" stroke="none" 
	d="
M17.732956,119.184166 
	C17.514288,119.941467 17.012024,120.823090 16.207666,121.810318 
	C16.420170,121.046783 16.934767,120.177635 17.732956,119.184166 
z"/>
<path fill="#8F07DA" opacity="1.000000" stroke="none" 
	d="
M182.044434,206.320374 
	C182.568710,206.502243 183.229980,206.940582 183.918579,207.709747 
	C183.357758,207.552658 182.769577,207.064758 182.044434,206.320374 
z"/>
<path fill="#4F06D5" opacity="1.000000" stroke="none" 
	d="
M212.348557,256.978271 
	C212.530457,256.656982 213.005753,256.369446 213.776825,256.085632 
	C213.595718,256.396912 213.118835,256.704468 212.348557,256.978271 
z"/>
<path fill="#D40B8B" opacity="1.000000" stroke="none" 
	d="
M108.460014,9.581861 
	C108.933029,9.851611 109.406036,10.121361 109.942032,10.696725 
	C110.005013,11.002339 109.913910,11.116957 109.627678,11.061741 
	C108.883362,10.682916 108.425285,10.359305 108.090652,9.922510 
	C108.214111,9.809325 108.460014,9.581861 108.460014,9.581861 
z"/>
<path fill="#D40B8B" opacity="1.000000" stroke="none" 
	d="
M104.855042,53.134830 
	C104.532578,52.674686 104.210114,52.214546 103.841209,51.466743 
	C103.794769,51.179089 103.939842,51.057167 104.236771,51.184692 
	C104.723839,51.849903 104.913979,52.387585 105.041336,52.977051 
	C104.978554,53.028831 104.855042,53.134830 104.855042,53.134830 
z"/>
<path fill="#5D05D8" opacity="1.000000" stroke="none" 
	d="
M223.061279,53.001728 
	C223.529633,52.906307 223.952789,52.935940 224.691635,53.000607 
	C224.504761,53.212749 224.002182,53.389858 223.238831,53.478477 
	C222.978058,53.389992 223.016068,53.126778 223.061279,53.001728 
z"/>
<path fill="#8B03DB" opacity="1.000000" stroke="none" 
	d="
M194.845154,60.359131 
	C194.893417,60.731441 194.699707,61.226421 194.276581,61.865376 
	C194.232513,61.500164 194.417847,60.990982 194.845154,60.359131 
z"/>
<path fill="#D80651" opacity="1.000000" stroke="none" 
	d="
M19.406883,117.649658 
	C19.354370,118.027481 19.018887,118.482605 18.368565,118.975006 
	C18.410454,118.583832 18.767183,118.155396 19.406883,117.649658 
z"/>
<path fill="#D80651" opacity="1.000000" stroke="none" 
	d="
M17.989616,145.335419 
	C18.463455,145.346985 18.997850,145.625092 19.443220,146.221481 
	C18.919519,146.227173 18.484844,145.914566 17.989616,145.335419 
z"/>
<path fill="#D80651" opacity="1.000000" stroke="none" 
	d="
M16.641323,143.617920 
	C17.019022,143.695099 17.465002,144.056656 17.920877,144.743469 
	C17.523714,144.679916 17.116657,144.291107 16.641323,143.617920 
z"/>
<path fill="#D80651" opacity="1.000000" stroke="none" 
	d="
M51.431614,140.198166 
	C51.580257,139.860962 52.024353,139.471985 52.790901,139.091156 
	C52.651264,139.448349 52.189167,139.797363 51.431614,140.198166 
z"/>
<path fill="#D80651" opacity="1.000000" stroke="none" 
	d="
M15.821465,142.396393 
	C16.068977,142.348618 16.364231,142.565140 16.648746,143.071533 
	C16.381741,143.127838 16.125473,142.894272 15.821465,142.396393 
z"/>
<path fill="#4F06D5" opacity="1.000000" stroke="none" 
	d="
M214.344299,256.099487 
	C214.322327,255.842331 214.569855,255.583954 215.098373,255.371338 
	C215.124176,255.644135 214.869003,255.871201 214.344299,256.099487 
z"/>
<path fill="#8103D7" opacity="1.000000" stroke="none" 
	d="
M189.110779,247.287842 
	C189.434036,247.161301 189.658295,247.392487 189.829102,247.960815 
	C189.616104,247.988251 189.361465,247.770767 189.110779,247.287842 
z"/>
<path fill="#D40B8B" opacity="1.000000" stroke="none" 
	d="
M106.963982,9.109035 
	C106.963982,9.109035 107.193939,9.018259 107.314056,8.994503 
	C107.633873,9.024467 107.833580,9.078188 108.246643,9.356886 
	C108.460014,9.581861 108.214111,9.809325 107.884918,9.813271 
	C107.298332,9.631411 107.101082,9.395350 106.963982,9.109035 
z"/>
<path fill="#5D05D8" opacity="1.000000" stroke="none" 
	d="
M219.123627,224.926178 
	C218.996597,224.874832 218.983963,224.494614 218.965897,224.305466 
	C219.130783,224.278061 219.275543,224.468781 219.451660,224.854797 
	C219.521179,225.021133 219.250641,224.977509 219.123627,224.926178 
z"/>
<path fill="#5D05D8" opacity="1.000000" stroke="none" 
	d="
M218.979095,223.732452 
	C218.624527,223.887787 218.380173,223.672852 218.134857,223.135773 
	C218.376572,223.082672 218.695023,223.265518 218.979095,223.732452 
z"/>
<path fill="#D40B8B" opacity="1.000000" stroke="none" 
	d="
M110.053284,10.947304 
	C110.398178,11.041628 110.694794,11.190988 111.091980,11.575745 
	C111.192558,11.811141 111.048462,11.947052 110.777740,11.885179 
	C110.259888,11.629366 110.062180,11.393916 109.913910,11.116957 
	C109.913910,11.116957 110.005013,11.002339 110.053284,10.947304 
z"/>
<path fill="#6A06D9" opacity="1.000000" stroke="none" 
	d="
M201.627518,50.801559 
	C201.738693,51.015011 201.592850,51.344040 201.205872,51.803997 
	C201.099976,51.595665 201.235229,51.256401 201.627518,50.801559 
z"/>
<path fill="#D40B8B" opacity="1.000000" stroke="none" 
	d="
M105.581650,54.350559 
	C105.245834,54.193947 105.067337,53.916096 104.871941,53.386539 
	C104.855042,53.134830 104.978554,53.028831 105.235130,53.111282 
	C105.733742,53.405155 105.913399,53.660477 106.030678,53.959694 
	C106.030678,53.959694 105.738976,54.229324 105.581650,54.350559 
z"/>
<path fill="#D80651" opacity="1.000000" stroke="none" 
	d="
M89.008820,209.719513 
	C88.745079,209.969940 88.468056,209.948929 87.775635,209.877472 
	C87.676979,209.541382 87.993736,209.255722 88.638878,208.937683 
	C88.976685,209.086212 88.986115,209.267151 89.008820,209.719513 
z"/>
<path fill="#D80772" opacity="1.000000" stroke="none" 
	d="
M105.511902,208.236023 
	C105.408691,207.992935 105.574303,207.645401 106.027458,207.210907 
	C106.136902,207.459824 105.958809,207.795700 105.511902,208.236023 
z"/>
<path fill="#D80651" opacity="1.000000" stroke="none" 
	d="
M49.356125,142.081467 
	C49.278980,141.872955 49.453075,141.569153 49.881035,141.172852 
	C49.959049,141.382309 49.783203,141.684250 49.356125,142.081467 
z"/>
<path fill="#D30A5A" opacity="1.000000" stroke="none" 
	d="
M88.916779,167.327957 
	C89.070793,167.278976 89.299355,167.464233 89.423973,167.788681 
	C89.320038,167.927856 88.991333,167.562210 88.916779,167.327957 
z"/>
<path fill="#6003D8" opacity="1.000000" stroke="none" 
	d="
M209.028473,85.752670 
	C208.848129,85.785263 208.659027,85.551331 208.585693,85.187790 
	C208.807541,85.200836 208.913651,85.343491 209.028473,85.752670 
z"/>
<path fill="#7003D8" opacity="1.000000" stroke="none" 
	d="
M210.665222,88.713898 
	C210.421417,88.799797 210.241241,88.609970 210.083588,88.160301 
	C210.316071,88.062424 210.523651,88.241661 210.665222,88.713898 
z"/>
<path fill="#D8045D" opacity="1.000000" stroke="none" 
	d="
M95.715714,91.007805 
	C95.774689,91.210243 95.569221,91.486183 95.115723,91.850800 
	C95.062218,91.653435 95.256737,91.367371 95.715714,91.007805 
z"/>
<path fill="#D80651" opacity="1.000000" stroke="none" 
	d="
M50.348114,141.074753 
	C50.286362,140.846420 50.491432,140.558746 50.964447,140.214111 
	C51.026577,140.443222 50.820759,140.729324 50.348114,141.074753 
z"/>
<path fill="#FEF9FE" opacity="1.000000" stroke="none" 
	d="
M130.743500,95.974838 
	C135.591644,94.074371 140.197495,92.403481 145.061325,90.444206 
	C145.995255,90.155869 146.671204,90.155914 147.670364,90.048088 
	C150.378418,89.975296 152.763260,90.010391 155.974213,90.066177 
	C162.808746,92.106918 168.817169,94.126968 174.841263,96.139931 
	C174.856949,96.132843 174.853394,96.101639 174.958435,96.340782 
	C175.378494,96.698975 175.693512,96.818024 176.011246,96.969315 
	C176.013962,97.001556 176.071350,96.971672 176.160324,97.171219 
	C176.443176,97.623482 176.699112,97.740326 177.017075,97.721283 
	C178.149734,98.710785 179.282379,99.700287 180.753662,101.088043 
	C181.381409,101.653435 181.670517,101.820572 181.959641,101.987709 
	C181.959641,101.987709 181.979462,102.022026 181.998901,102.028900 
	C184.416901,105.368378 186.815445,108.700981 189.481598,112.264091 
	C190.623260,114.897079 191.497284,117.299561 192.600479,120.366806 
	C195.025558,130.202988 193.968475,139.149933 190.738068,148.143051 
	C190.323700,148.869095 190.142456,149.415085 189.961227,149.961075 
	C189.961227,149.961075 190.000229,149.996170 189.721832,150.132065 
	C189.288864,150.832047 189.134277,151.396149 188.979691,151.960236 
	C188.979691,151.960236 188.983734,151.985214 188.701508,152.182449 
	C184.831909,156.535019 181.244553,160.690369 177.657196,164.845703 
	C175.283234,166.200180 172.909286,167.554657 170.264648,169.148026 
	C166.498749,170.365921 163.003540,171.344910 159.221039,172.556488 
	C154.229691,172.624313 149.525650,172.459549 144.050735,172.152863 
	C140.025177,170.933167 136.770493,169.855408 133.515793,168.777649 
	C131.881760,167.694748 130.247726,166.611847 128.144409,165.263199 
	C127.675110,164.997452 127.203484,164.905197 127.097473,164.659485 
	C126.685722,164.250641 126.379982,164.087494 126.074234,163.924362 
	C126.074234,163.924362 125.996315,163.989838 125.962166,163.716705 
	C125.636505,163.276260 125.344986,163.108948 125.053474,162.941650 
	C125.053474,162.941650 124.997200,162.981232 124.899620,162.657013 
	C123.221573,160.865875 121.641106,159.398987 120.060638,157.932098 
	C120.060638,157.932098 120.038399,157.945984 120.052841,157.936050 
	C117.541283,152.798218 115.015282,147.670334 112.266075,141.848083 
	C109.954460,131.878815 110.950775,122.893967 114.581558,114.156853 
	C118.630150,109.046982 122.678741,103.937111 126.921036,98.550743 
	C128.243561,97.584312 129.372391,96.894363 130.743500,95.974838 
M163.483521,150.244522 
	C172.832443,143.662155 175.985779,135.254868 172.876297,125.201897 
	C170.181168,116.488533 163.167419,112.028824 152.045364,111.956490 
	C140.826691,111.883514 132.332794,120.277550 131.895355,131.427231 
	C131.396423,144.144089 145.222504,159.037537 163.483521,150.244522 
z"/>
<path fill="#DA0383" opacity="1.000000" stroke="none" 
	d="
M106.401779,53.975132 
	C105.913399,53.660477 105.733742,53.405155 105.297913,53.059498 
	C104.913979,52.387585 104.723839,51.849903 104.312187,51.127327 
	C104.059692,49.891224 104.028717,48.840019 104.136261,47.340378 
	C104.183327,46.928165 104.091881,46.964382 104.000427,47.000595 
	C103.140259,46.848621 102.280098,46.696644 101.209183,46.290085 
	C101.858368,37.425125 101.870049,28.880314 100.438560,20.269680 
	C100.092789,18.189787 102.396446,15.669432 103.481743,13.351625 
	C103.873314,13.480258 104.264885,13.608891 104.656456,13.737523 
	C104.286079,12.273008 103.915703,10.808494 103.795677,9.149268 
	C104.776443,8.978033 105.506866,9.001509 106.600632,9.067009 
	C107.101082,9.395350 107.298332,9.631411 107.761459,9.926456 
	C108.425285,10.359305 108.883362,10.682916 109.627678,11.061741 
	C110.062180,11.393916 110.259888,11.629366 110.701653,11.948574 
	C111.197197,19.318348 111.579102,26.560768 111.765457,33.808216 
	C111.861076,37.526726 111.522888,41.254852 111.550781,44.977356 
	C111.562950,46.600773 112.002014,48.220989 112.619789,49.914696 
	C111.904305,51.322071 110.816238,52.657410 109.365768,54.001488 
	C108.259865,54.003674 107.516365,53.997120 106.401779,53.975132 
z"/>
<path fill="#DA0383" opacity="1.000000" stroke="none" 
	d="
M114.157211,114.114258 
	C110.950775,122.893967 109.954460,131.878815 112.027252,141.581451 
	C111.233833,143.307953 110.456024,144.606766 109.341583,145.954865 
	C109.054596,144.776840 109.549911,142.694351 109.085960,142.452576 
	C103.553459,139.569366 106.382675,135.176315 106.802742,131.205536 
	C107.557915,124.067162 108.271507,116.924385 109.004051,109.389709 
	C109.670189,109.780113 110.304604,110.592545 111.006950,111.341240 
	C111.886421,112.278740 112.821686,113.163910 114.157211,114.114258 
z"/>
<path fill="#DD0076" opacity="1.000000" stroke="none" 
	d="
M99.373894,174.928070 
	C99.423615,173.380569 99.841736,171.761215 100.628403,170.069107 
	C100.578735,171.616318 100.160515,173.236252 99.373894,174.928070 
z"/>
<path fill="#8103D7" opacity="1.000000" stroke="none" 
	d="
M190.971207,147.962997 
	C193.968475,139.149933 195.025558,130.202988 192.852158,120.617325 
	C193.583359,119.266022 194.896500,118.336670 194.908569,117.390701 
	C195.052155,106.146965 194.956665,94.900360 195.056519,83.655685 
	C195.069824,82.156975 195.815872,80.664764 196.609467,79.082886 
	C197.758820,81.969070 198.515839,84.943344 199.287460,87.913811 
	C199.492523,88.703224 199.942017,89.480713 199.943024,90.264114 
	C199.977951,117.501427 199.974457,144.738800 199.957138,171.976135 
	C199.956833,172.454224 199.721283,172.932144 199.299744,173.704941 
	C198.354187,172.953751 197.182388,171.927368 197.142212,170.858475 
	C196.934647,165.334381 197.276367,159.779312 196.850906,154.279572 
	C196.710068,152.459137 194.853348,150.771439 193.218765,148.766296 
	C192.094666,148.327377 191.532928,148.145187 190.971207,147.962997 
z"/>
<path fill="#8103D7" opacity="1.000000" stroke="none" 
	d="
M200.266037,179.778732 
	C196.861481,179.914871 195.980713,178.838028 198.696411,176.158585 
	C199.514252,177.184143 200.022385,178.370499 200.266037,179.778732 
z"/>
<path fill="#D8045D" opacity="1.000000" stroke="none" 
	d="
M86.557114,211.000122 
	C86.763428,212.115646 86.605156,213.249069 86.299332,214.341187 
	C85.002579,218.972076 83.234261,223.198273 86.187462,228.330704 
	C87.728088,231.008179 86.254272,235.408386 86.179146,239.031250 
	C86.122864,241.745178 86.125916,244.460342 86.054871,247.570557 
	C73.715614,248.124008 77.272934,247.553680 79.831993,238.701172 
	C80.701546,235.693146 79.856895,233.810577 79.089226,231.071060 
	C77.491806,225.370453 77.384171,219.138336 77.632492,213.164902 
	C77.667336,212.326736 83.158913,211.715378 86.557114,211.000122 
z"/>
<path fill="#D603B1" opacity="1.000000" stroke="none" 
	d="
M133.078018,168.843048 
	C136.770493,169.855408 140.025177,170.933167 143.642731,172.150787 
	C140.868195,174.378464 140.815033,177.486664 140.959030,180.814682 
	C141.137756,184.945236 140.801834,189.103302 141.087631,193.221741 
	C141.228104,195.245941 142.268814,197.207642 142.948517,199.581268 
	C137.975372,199.643951 132.955872,199.323013 127.476730,199.010025 
	C127.017105,199.017975 127.001671,199.000946 127.234589,198.684814 
	C127.978043,197.081177 128.953384,195.782501 128.922699,194.508041 
	C128.741943,187.000443 128.326920,179.498489 127.990814,171.994644 
	C128.313370,171.211563 128.635941,170.428482 129.230331,169.326019 
	C129.502167,169.006638 129.993591,169.007568 129.993591,169.007568 
	C130.875809,168.974533 131.758026,168.941483 133.078018,168.843048 
z"/>
<path fill="#CD00D8" opacity="1.000000" stroke="none" 
	d="
M158.781601,174.330917 
	C159.996445,173.864670 160.969345,173.713837 161.935944,173.529831 
	C167.088333,172.549011 168.975464,174.018127 168.997681,179.075729 
	C169.015121,183.046524 169.556335,187.122482 168.833054,190.957123 
	C168.182465,194.406342 166.128174,197.590805 164.343170,200.944183 
	C154.863724,200.900864 155.969376,201.996964 156.053848,193.204529 
	C156.105698,187.807556 156.628418,182.410751 157.089081,177.026642 
	C157.160416,176.192917 158.034103,175.427826 158.781601,174.330917 
z"/>
<path fill="#D603B1" opacity="1.000000" stroke="none" 
	d="
M145.978638,199.719589 
	C145.993149,199.966019 145.500214,199.985535 145.253784,199.977036 
	C145.169708,199.543854 145.332047,199.119171 145.494400,198.694489 
	C145.650986,198.954041 145.807556,199.213608 145.978638,199.719589 
z"/>
<path fill="#DA0164" opacity="1.000000" stroke="none" 
	d="
M89.302414,162.847046 
	C87.662827,159.879532 86.465492,156.688019 84.951004,153.654831 
	C83.478256,150.705246 81.624130,147.948334 80.056625,145.042542 
	C79.522461,144.052307 79.350281,142.866821 79.007874,141.386810 
	C80.676880,139.047897 83.499306,137.252380 83.797607,135.106049 
	C84.534286,129.805389 83.643326,124.282066 84.341400,118.971115 
	C84.737335,115.958931 86.975456,113.188889 88.979202,110.428650 
	C89.697624,115.852448 90.571869,121.284065 89.705330,126.422089 
	C89.016853,130.504242 89.466553,133.056244 93.003685,135.000000 
	C93.001495,142.687653 92.999313,150.375305 92.996124,158.531647 
	C91.865372,160.231003 90.735619,161.461655 89.302414,162.847046 
z"/>
<path fill="#DB036E" opacity="1.000000" stroke="none" 
	d="
M93.353722,134.941971 
	C89.466553,133.056244 89.016853,130.504242 89.705330,126.422089 
	C90.571869,121.284065 89.697624,115.852448 89.285408,110.272232 
	C89.006226,107.645798 89.016121,105.294655 89.048775,102.504669 
	C90.207756,100.847000 91.343971,99.628174 92.745461,98.204102 
	C95.828575,101.407639 98.622559,104.406235 97.161247,109.800262 
	C96.054337,113.886108 96.144386,118.755272 97.243042,122.863693 
	C98.624626,128.030167 96.016968,131.231262 93.353722,134.941971 
z"/>
<path fill="#9703D9" opacity="1.000000" stroke="none" 
	d="
M188.997803,197.002869 
	C188.332413,195.886215 187.094498,194.769547 187.094528,193.652908 
	C187.094696,186.388687 187.435837,179.125229 187.510864,171.859909 
	C187.542862,168.760406 187.149826,165.700241 182.392578,166.003815 
	C181.674393,165.900940 181.414734,165.710358 181.364136,164.935089 
	C184.496674,163.968369 187.608322,163.698181 187.218567,159.337021 
	C187.183670,158.946625 188.372757,158.446854 188.993393,157.997879 
	C189.750900,167.546738 190.554276,177.092361 191.230621,186.646973 
	C191.381760,188.782349 191.087280,190.949280 190.708313,193.692871 
	C189.945053,195.190338 189.471420,196.096603 188.997803,197.002869 
z"/>
<path fill="#9E03D7" opacity="1.000000" stroke="none" 
	d="
M188.995926,157.568817 
	C188.372757,158.446854 187.183670,158.946625 187.218567,159.337021 
	C187.608322,163.698181 184.496674,163.968369 181.257980,164.714294 
	C180.077744,165.013016 179.149246,165.034348 177.938965,164.950699 
	C181.244553,160.690369 184.831909,156.535019 188.690277,152.188293 
	C188.973679,153.711182 188.986069,155.425476 188.995926,157.568817 
z"/>
<path fill="#8F07DA" opacity="1.000000" stroke="none" 
	d="
M189.165375,197.247131 
	C189.471420,196.096603 189.945053,195.190338 190.707230,194.142670 
	C191.158752,195.208633 191.321732,196.416000 191.239609,197.812271 
	C190.440659,197.831253 189.886810,197.661316 189.165375,197.247131 
z"/>
<path fill="#9E03D7" opacity="1.000000" stroke="none" 
	d="
M190.738068,148.143051 
	C191.532928,148.145187 192.094666,148.327377 192.825607,148.758453 
	C192.210739,149.332458 191.426666,149.657547 190.301910,149.971848 
	C190.142456,149.415085 190.323700,148.869095 190.738068,148.143051 
z"/>
<path fill="#9E03D7" opacity="1.000000" stroke="none" 
	d="
M189.231140,151.800568 
	C189.134277,151.396149 189.288864,150.832047 189.701538,150.117630 
	C189.800629,150.525162 189.641617,151.083038 189.231140,151.800568 
z"/>
<path fill="#D603A0" opacity="1.000000" stroke="none" 
	d="
M127.600403,172.002014 
	C128.326920,179.498489 128.741943,187.000443 128.922699,194.508041 
	C128.953384,195.782501 127.978043,197.081177 127.228561,198.676834 
	C125.660118,197.248611 123.353180,195.601791 123.184280,193.759018 
	C122.676430,188.217789 122.666847,182.568253 123.195389,177.030869 
	C123.365799,175.245575 125.807396,173.677078 127.600403,172.002014 
z"/>
<path fill="#D8048D" opacity="1.000000" stroke="none" 
	d="
M120.046402,158.311371 
	C121.641106,159.398987 123.221573,160.865875 124.926208,162.631805 
	C122.024422,163.118958 120.260574,161.813400 120.046402,158.311371 
z"/>
<path fill="#D603A0" opacity="1.000000" stroke="none" 
	d="
M127.203484,164.905197 
	C127.203484,164.905197 127.675110,164.997452 127.839066,165.173187 
	C127.500969,166.187134 126.998924,167.025330 126.496880,167.863525 
	C126.161003,167.044250 125.825127,166.224960 126.046585,165.188843 
	C126.803764,164.949738 127.003624,164.927475 127.203484,164.905197 
z"/>
<path fill="#D8048D" opacity="1.000000" stroke="none" 
	d="
M125.151733,163.173798 
	C125.344986,163.108948 125.636505,163.276260 126.005493,163.690857 
	C125.805321,163.760757 125.527657,163.583344 125.151733,163.173798 
z"/>
<path fill="#D8048D" opacity="1.000000" stroke="none" 
	d="
M127.097473,164.659485 
	C127.003624,164.927475 126.803764,164.949738 126.302307,164.973480 
	C126.005913,164.799530 126.011131,164.624084 126.045288,164.186493 
	C126.379982,164.087494 126.685722,164.250641 127.097473,164.659485 
z"/>
<path fill="#D603A0" opacity="1.000000" stroke="none" 
	d="
M129.907532,168.839050 
	C129.993591,169.007568 129.502167,169.006638 129.256592,169.007614 
	C129.281143,168.895889 129.551300,168.783203 129.907532,168.839050 
z"/>
<path fill="#CD00D8" opacity="1.000000" stroke="none" 
	d="
M157.011322,65.371925 
	C163.305908,64.625832 169.095230,65.379883 172.641556,72.341606 
	C172.991669,73.866142 172.990555,74.935204 172.613083,76.083939 
	C171.834061,76.817535 171.160492,77.436188 171.070038,78.130791 
	C169.984573,86.465225 167.177582,89.023453 159.018494,88.971443 
	C156.984863,84.587097 157.041611,80.047882 159.103958,75.860573 
	C161.160965,71.684120 157.618073,69.117432 157.011322,65.371925 
z"/>
<path fill="#BC0CD3" opacity="1.000000" stroke="none" 
	d="
M158.687042,88.982063 
	C167.177582,89.023453 169.984573,86.465225 171.070038,78.130791 
	C171.160492,77.436188 171.834061,76.817535 172.667145,76.489380 
	C173.347153,79.536766 174.408371,82.508011 173.665237,84.924316 
	C172.397583,89.046074 172.292999,92.618149 174.825577,96.147018 
	C168.817169,94.126968 162.808746,92.106918 156.415131,89.989304 
	C156.805130,89.592049 157.580368,89.292366 158.687042,88.982063 
z"/>
<path fill="#B203DC" opacity="1.000000" stroke="none" 
	d="
M174.841263,96.139931 
	C172.292999,92.618149 172.397583,89.046074 173.665237,84.924316 
	C174.408371,82.508011 173.347153,79.536766 173.043518,76.409714 
	C172.990555,74.935204 172.991669,73.866142 172.990036,72.396088 
	C174.324005,69.910187 175.660736,67.825272 177.013641,65.384163 
	C177.988449,65.786278 179.685089,66.454926 179.789810,67.316971 
	C180.686096,74.694466 181.695206,82.103386 181.761871,89.511086 
	C181.784027,91.971336 179.163986,94.455360 177.153763,96.958633 
	C176.555618,96.988739 176.071350,96.971672 176.071350,96.971672 
	C176.071350,96.971672 176.013962,97.001556 175.882050,96.754120 
	C175.451218,96.371666 175.152313,96.236649 174.853394,96.101639 
	C174.853394,96.101639 174.856949,96.132843 174.841263,96.139931 
z"/>
<path fill="#BC0CD3" opacity="1.000000" stroke="none" 
	d="
M176.160324,97.171219 
	C176.071350,96.971672 176.555618,96.988739 176.797165,97.013977 
	C177.038712,97.039207 177.028671,97.380478 177.022873,97.550880 
	C176.699112,97.740326 176.443176,97.623482 176.160324,97.171219 
z"/>
<path fill="#9703D9" opacity="1.000000" stroke="none" 
	d="
M181.862610,101.765320 
	C181.670517,101.820572 181.381409,101.653435 181.043167,101.228004 
	C181.311264,101.080017 181.568451,101.271095 181.862610,101.765320 
z"/>
<path fill="#D105CB" opacity="1.000000" stroke="none" 
	d="
M163.150101,150.430389 
	C145.222504,159.037537 131.396423,144.144089 131.895355,131.427231 
	C132.332794,120.277550 140.826691,111.883514 152.045364,111.956490 
	C163.167419,112.028824 170.181168,116.488533 172.876297,125.201897 
	C175.985779,135.254868 172.832443,143.662155 163.150101,150.430389 
z"/>
<path fill="#BC0CD3" opacity="1.000000" stroke="none" 
	d="
M174.958435,96.340775 
	C175.152313,96.236649 175.451218,96.371666 175.879333,96.721878 
	C175.693512,96.818024 175.378494,96.698975 174.958435,96.340775 
z"/>
<path fill="#D40B8B" opacity="1.000000" stroke="none" 
	d="
M104.000214,47.000298 
	C104.091881,46.964382 104.183327,46.928165 104.137085,46.945755 
	C103.999390,46.999557 104.000000,47.000000 104.000214,47.000298 
z"/>
</svg>